<?xml version="1.0" encoding="UTF-8" standalone="no"?>
<!-- Created with Inkscape (http://www.inkscape.org/) -->

<svg
   xmlns:dc="http://purl.org/dc/elements/1.1/"
   xmlns:cc="http://creativecommons.org/ns#"
   xmlns:rdf="http://www.w3.org/1999/02/22-rdf-syntax-ns#"
   xmlns:svg="http://www.w3.org/2000/svg"
   xmlns="http://www.w3.org/2000/svg"
   xmlns:sodipodi="http://sodipodi.sourceforge.net/DTD/sodipodi-0.dtd"
   xmlns:inkscape="http://www.inkscape.org/namespaces/inkscape"
   width="216.36526mm"
   height="68.22435mm"
   viewBox="0 0 216.36528 68.224351"
   version="1.1"
   id="svg8"
   sodipodi:docname="triathlon-twins-white,dark-blue.svg"
   inkscape:version="0.92.3 (2405546, 2018-03-11)">
  <defs
     id="defs2">
    <inkscape:perspective
       sodipodi:type="inkscape:persp3d"
       inkscape:vp_x="0 : 34.112175 : 1"
       inkscape:vp_y="0 : 1000 : 0"
       inkscape:vp_z="190.47773 : 34.112175 : 1"
       inkscape:persp3d-origin="95.238864 : 22.74145 : 1"
       id="perspective864" />
  </defs>
  <sodipodi:namedview
     id="base"
     pagecolor="#ffffff"
     bordercolor="#666666"
     borderopacity="1.0"
     inkscape:pageopacity="0.0"
     inkscape:pageshadow="2"
     inkscape:zoom="0.98994949"
     inkscape:cx="435.63814"
     inkscape:cy="184.20748"
     inkscape:document-units="mm"
     inkscape:current-layer="layer1"
     showgrid="false"
     inkscape:window-width="1920"
     inkscape:window-height="986"
     inkscape:window-x="-11"
     inkscape:window-y="-11"
     inkscape:window-maximized="1"
     inkscape:snap-grids="true"
     showguides="false"
     inkscape:measure-start="422.5,695.357"
     inkscape:measure-end="413.214,719.464"
     inkscape:snap-text-baseline="true"
     fit-margin-top="0"
     fit-margin-left="0"
     fit-margin-right="0"
     fit-margin-bottom="0"
     inkscape:pagecheckerboard="true">
    <inkscape:grid
       type="xygrid"
       id="grid3725"
       originx="-26.335097"
       originy="-166.21027" />
  </sodipodi:namedview>
  <metadata
     id="metadata5">
    <rdf:RDF>
      <cc:Work
         rdf:about="">
        <dc:format>image/svg+xml</dc:format>
        <dc:type
           rdf:resource="http://purl.org/dc/dcmitype/StillImage" />
        <dc:title></dc:title>
      </cc:Work>
    </rdf:RDF>
  </metadata>
  <g
     inkscape:label="Vrstva 1"
     inkscape:groupmode="layer"
     id="layer1"
     transform="translate(-26.335083,-62.565421)">
    <g
       aria-label="LH"
       transform="matrix(0.91020084,0,0,1.0986586,-21.906884,1.3229167)"
       style="font-style:italic;font-variant:normal;font-weight:bold;font-stretch:normal;font-size:85.41062164px;line-height:1.25;font-family:sans-serif;-inkscape-font-specification:'sans-serif, Bold Italic';font-variant-ligatures:normal;font-variant-caps:normal;font-variant-numeric:normal;font-feature-settings:normal;text-align:start;letter-spacing:0px;word-spacing:0px;writing-mode:lr-tb;text-anchor:start;fill:#4876d1;fill-opacity:1;stroke:none;stroke-width:1.23350573"
       id="text3682">
      <path
         d="m 109.61457,117.83784 -27.656548,0.003 H 53.001453 l 14.713362,-62.03704 15.730854,-0.06082 -5.776061,25.043495 -5.77606,25.043495 21.530519,0.086 18.876583,0.0537 z"
         style="font-style:italic;font-variant:normal;font-weight:bold;font-stretch:normal;font-size:85.41062164px;font-family:sans-serif;-inkscape-font-specification:'sans-serif, Bold Italic';font-variant-ligatures:normal;font-variant-caps:normal;font-variant-numeric:normal;font-feature-settings:normal;text-align:start;writing-mode:lr-tb;text-anchor:start;fill:#4876d1;fill-opacity:1;stroke-width:1.23350573"
         id="path3701"
         inkscape:connector-curvature="0"
         sodipodi:nodetypes="cccccccccc" />
      <path
         d="m 145.31467,55.751582 -14.86393,62.043298 h -15.05973 l 5.07692,-24.148794 H 96.904952 l -1.794606,7.768754 h -16.0979 L 89.557212,55.746245 H 105.65512 L 99.615732,81.84374 h 23.562988 l 6.03805,-26.092158 z"
         style="font-style:italic;font-variant:normal;font-weight:bold;font-stretch:normal;font-size:85.41062164px;font-family:sans-serif;-inkscape-font-specification:'sans-serif, Bold Italic';font-variant-ligatures:normal;font-variant-caps:normal;font-variant-numeric:normal;font-feature-settings:normal;text-align:start;writing-mode:lr-tb;text-anchor:start;fill:#4876d1;fill-opacity:1;stroke-width:1.23350573"
         id="path3703"
         inkscape:connector-curvature="0"
         sodipodi:nodetypes="ccccccccccccc" />
    </g>
    <text
       xml:space="preserve"
       style="font-style:normal;font-weight:normal;font-size:10.58333302px;line-height:1.25;font-family:sans-serif;letter-spacing:0px;word-spacing:0px;fill:#000000;fill-opacity:1;stroke:none;stroke-width:0.26458332"
       x="12.095239"
       y="261.47021"
       id="text3767"><tspan
         sodipodi:role="line"
         id="tspan3765"
         x="12.095239"
         y="271.1257"
         style="stroke-width:0.26458332" /></text>
    <text
       xml:space="preserve"
       style="font-style:italic;font-variant:normal;font-weight:bold;font-stretch:normal;font-size:12.69999981px;line-height:1.25;font-family:Arial;-inkscape-font-specification:'Arial, Bold Italic';font-variant-ligatures:normal;font-variant-caps:normal;font-variant-numeric:normal;font-feature-settings:normal;text-align:start;letter-spacing:0px;word-spacing:0px;writing-mode:lr-tb;text-anchor:start;fill:#000000;fill-opacity:1;stroke:none;stroke-width:0.26678672"
       x="93.854668"
       y="215.41394"
       id="text21"
       transform="scale(0.9983,1.0017029)"><tspan
         sodipodi:role="line"
         id="tspan19"
         x="93.854668"
         y="215.41394"
         style="font-style:italic;font-variant:normal;font-weight:bold;font-stretch:normal;font-size:12.69999981px;font-family:Arial;-inkscape-font-specification:'Arial, Bold Italic';font-variant-ligatures:normal;font-variant-caps:normal;font-variant-numeric:normal;font-feature-settings:normal;text-align:start;writing-mode:lr-tb;text-anchor:start;stroke-width:0.26678672">TRIATHLON</tspan></text>
    <text
       xml:space="preserve"
       style="font-style:italic;font-variant:normal;font-weight:bold;font-stretch:normal;font-size:12.69999981px;line-height:1.25;font-family:Arial;-inkscape-font-specification:'Arial, Bold Italic';font-variant-ligatures:normal;font-variant-caps:normal;font-variant-numeric:normal;font-feature-settings:normal;text-align:start;letter-spacing:0px;word-spacing:0.34660417px;writing-mode:lr-tb;text-anchor:start;fill:#000000;fill-opacity:1;stroke:none;stroke-width:0.26458332"
       x="91.949417"
       y="227.7845"
       id="text3988"><tspan
         sodipodi:role="line"
         id="tspan3986"
         x="91.949417"
         y="227.7845"
         style="font-style:italic;font-variant:normal;font-weight:bold;font-stretch:normal;font-size:12.69999981px;font-family:Arial;-inkscape-font-specification:'Arial, Bold Italic';font-variant-ligatures:normal;font-variant-caps:normal;font-variant-numeric:normal;font-feature-settings:normal;text-align:start;word-spacing:0.34660417px;writing-mode:lr-tb;text-anchor:start;stroke-width:0.26458332">T  W  I  N  <tspan
   style="font-style:italic;font-variant:normal;font-weight:bold;font-stretch:normal;font-family:Arial;-inkscape-font-specification:'Arial Bold Italic'"
   id="tspan4010">S</tspan></tspan></text>
    <text
       xml:space="preserve"
       style="font-style:normal;font-variant:normal;font-weight:normal;font-stretch:normal;font-size:10.58333302px;line-height:1.25;font-family:sans-serif;-inkscape-font-specification:'sans-serif, Normal';font-variant-ligatures:normal;font-variant-caps:normal;font-variant-numeric:normal;font-feature-settings:normal;text-align:start;letter-spacing:0px;word-spacing:0px;writing-mode:lr-tb;text-anchor:start;fill:#000000;fill-opacity:1;stroke:none;stroke-width:0.26458332"
       x="147.13188"
       y="137.17282"
       id="text3992"><tspan
         sodipodi:role="line"
         id="tspan3990"
         x="147.13188"
         y="146.82832"
         style="stroke-width:0.26458332" /></text>
    <g
       aria-label="TRIATHLON "
       style="font-style:italic;font-variant:normal;font-weight:bold;font-stretch:normal;font-size:11.28888893px;line-height:1.25;font-family:sans-serif;-inkscape-font-specification:'sans-serif Bold Italic';font-variant-ligatures:normal;font-variant-caps:normal;font-variant-numeric:normal;font-feature-settings:normal;text-align:start;letter-spacing:0px;word-spacing:0px;writing-mode:lr-tb;text-anchor:start;fill:#ffffff;fill-opacity:1;stroke:none;stroke-width:0.26458332"
       id="text4000"
       transform="matrix(1.6926674,0,0,1.7289708,-78.974183,-159.03362)">
      <path
         d="m 123.21618,139.50625 h -2.55764 l -1.52686,6.62009 h -2.1277 l 1.52687,-6.62009 h -2.55764 l 0.3638,-1.5875 h 7.24297 z"
         style="font-style:italic;font-variant:normal;font-weight:bold;font-stretch:normal;font-size:11.28888893px;font-family:sans-serif;-inkscape-font-specification:'sans-serif Bold Italic';fill:#ffffff;fill-opacity:1;stroke-width:0.26458332"
         id="path4026"
         inkscape:connector-curvature="0" />
      <path
         d="m 131.19227,139.9858 q 0,0.98668 -0.60083,1.65916 -0.60082,0.67249 -1.6316,1.01424 l 1.89618,3.46714 h -2.36471 l -1.5434,-3.00963 h -1.19063 l -0.69453,3.00963 h -2.11666 l 1.89618,-8.20759 h 3.20256 q 1.50481,0 2.32613,0.51263 0.82131,0.50712 0.82131,1.55442 z m -2.28203,0.35278 q 0,-0.49609 -0.31971,-0.70004 -0.31419,-0.20946 -0.93155,-0.20946 h -1.04731 l -0.51263,2.21037 h 1.04179 q 0.84336,0 1.30638,-0.34175 0.46303,-0.34727 0.46303,-0.95912 z"
         style="font-style:italic;font-variant:normal;font-weight:bold;font-stretch:normal;font-size:11.28888893px;font-family:sans-serif;-inkscape-font-specification:'sans-serif Bold Italic';fill:#ffffff;fill-opacity:1;stroke-width:0.26458332"
         id="path4028"
         inkscape:connector-curvature="0" />
      <path
         d="m 134.89092,146.12634 h -2.12769 l 0.33624,-1.45521 v 0 l 1.2237,-5.29717 v 0 l 0.33625,-1.45521 h 2.12768 l -0.33624,1.45521 v 0 l -1.2237,5.29717 v 0 z"
         style="font-style:italic;font-variant:normal;font-weight:bold;font-stretch:normal;font-size:11.28888893px;font-family:sans-serif;-inkscape-font-specification:'sans-serif Bold Italic';fill:#ffffff;fill-opacity:1;stroke-width:0.26458332"
         id="path4030"
         inkscape:connector-curvature="0"
         sodipodi:nodetypes="ccccccccccccc" />
      <path
         d="m 145.63411,146.12634 h -2.13321 l -0.18741,-1.67569 h -3.02066 l -0.95911,1.67569 h -2.21038 l 4.92236,-8.20759 h 2.44739 z m -2.48047,-3.14744 -0.33073,-2.949 -1.69223,2.949 z"
         style="font-style:italic;font-variant:normal;font-weight:bold;font-stretch:normal;font-size:11.28888893px;font-family:sans-serif;-inkscape-font-specification:'sans-serif Bold Italic';fill:#ffffff;fill-opacity:1;stroke-width:0.26458332"
         id="path4032"
         inkscape:connector-curvature="0" />
      <path
         d="m 154.7016,139.50625 h -2.55764 l -1.52687,6.62009 h -2.12769 l 1.52687,-6.62009 h -2.55764 l 0.3638,-1.5875 h 7.24297 z"
         style="font-style:italic;font-variant:normal;font-weight:bold;font-stretch:normal;font-size:11.28888893px;font-family:sans-serif;-inkscape-font-specification:'sans-serif Bold Italic';fill:#ffffff;fill-opacity:1;stroke-width:0.26458332"
         id="path4034"
         inkscape:connector-curvature="0" />
      <path
         d="m 163.69743,137.91875 -1.89618,8.20759 h -2.12769 l 0.83785,-3.62699 h -3.11437 l -0.83785,3.62699 h -2.12769 l 1.89618,-8.20759 h 2.12769 l -0.70004,3.02066 h 3.11437 l 0.70004,-3.02066 z"
         style="font-style:italic;font-variant:normal;font-weight:bold;font-stretch:normal;font-size:11.28888893px;font-family:sans-serif;-inkscape-font-specification:'sans-serif Bold Italic';fill:#ffffff;fill-opacity:1;stroke-width:0.26458332"
         id="path4036"
         inkscape:connector-curvature="0" />
      <path
         d="m 169.81592,146.12634 h -5.92556 l 1.89618,-8.20759 h 2.12769 l -1.52687,6.62009 h 3.79788 z"
         style="font-style:italic;font-variant:normal;font-weight:bold;font-stretch:normal;font-size:11.28888893px;font-family:sans-serif;-inkscape-font-specification:'sans-serif Bold Italic';fill:#ffffff;fill-opacity:1;stroke-width:0.26458332"
         id="path4038"
         inkscape:connector-curvature="0" />
      <path
         d="m 180.16223,140.97248 q 0,1.00872 -0.34175,1.98437 -0.34176,0.97566 -0.99219,1.70326 -0.71107,0.79375 -1.65916,1.21819 -0.94809,0.41892 -2.18281,0.41892 -1.68121,0 -2.63481,-0.86541 -0.94809,-0.87092 -0.94809,-2.39227 0,-1.06936 0.3638,-2.03399 0.36381,-0.96462 1.0418,-1.69774 0.66146,-0.71107 1.63711,-1.1355 0.97565,-0.42444 2.12769,-0.42444 1.68672,0 2.63481,0.87092 0.9536,0.87092 0.9536,2.35369 z m -3.02617,2.80017 q 0.37483,-0.49058 0.58429,-1.1355 0.21497,-0.65043 0.21497,-1.49379 0,-0.88195 -0.42443,-1.37804 -0.41893,-0.50161 -1.20165,-0.50161 -0.51263,0 -0.98117,0.23703 -0.46302,0.23151 -0.85438,0.71106 -0.38034,0.45751 -0.61185,1.14102 -0.23151,0.67799 -0.23151,1.52686 0,0.94258 0.42995,1.42214 0.43546,0.47956 1.20165,0.47956 0.52916,0 1.01975,-0.25907 0.49058,-0.26459 0.85438,-0.74966 z"
         style="font-style:italic;font-variant:normal;font-weight:bold;font-stretch:normal;font-size:11.28888893px;font-family:sans-serif;-inkscape-font-specification:'sans-serif Bold Italic';fill:#ffffff;fill-opacity:1;stroke-width:0.26458332"
         id="path4040"
         inkscape:connector-curvature="0" />
      <path
         d="m 188.14383,146.12634 h -1.80248 l -2.40881,-5.68303 -1.31189,5.68303 h -1.9513 l 1.89618,-8.20759 h 2.37022 l 2.06155,4.75147 1.09141,-4.75147 h 1.9513 z"
         style="font-style:italic;font-variant:normal;font-weight:bold;font-stretch:normal;font-size:11.28888893px;font-family:sans-serif;-inkscape-font-specification:'sans-serif Bold Italic';fill:#ffffff;fill-opacity:1;stroke-width:0.26458332"
         id="path4042"
         inkscape:connector-curvature="0" />
    </g>
    <g
       aria-label="T W I N S"
       style="font-style:italic;font-variant:normal;font-weight:bold;font-stretch:normal;font-size:11.28888893px;line-height:1.25;font-family:sans-serif;-inkscape-font-specification:'sans-serif Bold Italic';font-variant-ligatures:normal;font-variant-caps:normal;font-variant-numeric:normal;font-feature-settings:normal;text-align:start;letter-spacing:0px;word-spacing:3.62743783px;writing-mode:lr-tb;text-anchor:start;fill:#ffffff;fill-opacity:1;stroke:none;stroke-width:0.26458332"
       id="text4004"
       transform="matrix(1.6926674,0,0,1.7289708,-79.19062,-155.54542)">
      <path
         d="m 121.87982,149.26159 h -2.55763 l -1.52687,6.62009 h -2.12769 l 1.52686,-6.62009 h -2.55763 l 0.3638,-1.5875 h 7.24297 z"
         style="font-style:italic;font-variant:normal;font-weight:bold;font-stretch:normal;font-size:11.28888893px;font-family:sans-serif;-inkscape-font-specification:'sans-serif Bold Italic';word-spacing:3.62743783px;fill:#ffffff;fill-opacity:1;stroke-width:0.26458332"
         id="path4045"
         inkscape:connector-curvature="0" />
      <path
         d="m 142.32484,147.67409 -3.9908,8.20759 h -2.27101 l -0.35277,-5.44049 -2.66237,5.44049 h -2.3592 l -0.37483,-8.20759 h 2.21037 l 0.0165,5.64995 2.75608,-5.64995 h 2.11115 l 0.24805,5.64995 2.51354,-5.64995 z"
         style="font-style:italic;font-variant:normal;font-weight:bold;font-stretch:normal;font-size:11.28888893px;font-family:sans-serif;-inkscape-font-specification:'sans-serif Bold Italic';word-spacing:3.62743783px;fill:#ffffff;fill-opacity:1;stroke-width:0.26458332"
         id="path4047"
         inkscape:connector-curvature="0" />
      <path
         d="m 152.42906,155.88168 h -2.1277 l 0.33625,-1.4552 v 0 l 1.2237,-5.29718 v 0 l 0.33625,-1.45521 h 2.12768 l -0.33624,1.45521 v 0 l -1.2237,5.29718 v 0 z"
         style="font-style:italic;font-variant:normal;font-weight:bold;font-stretch:normal;font-size:11.28888893px;font-family:sans-serif;-inkscape-font-specification:'sans-serif Bold Italic';word-spacing:3.62743783px;fill:#ffffff;fill-opacity:1;stroke-width:0.26458332"
         id="path4049"
         inkscape:connector-curvature="0"
         sodipodi:nodetypes="ccccccccccccc" />
      <path
         d="m 170.45975,155.88168 h -1.80247 l -2.40882,-5.68303 -1.31189,5.68303 h -1.9513 l 1.89618,-8.20759 h 2.37023 l 2.06154,4.75147 1.09141,-4.75147 h 1.9513 z"
         style="font-style:italic;font-variant:normal;font-weight:bold;font-stretch:normal;font-size:11.28888893px;font-family:sans-serif;-inkscape-font-specification:'sans-serif Bold Italic';word-spacing:3.62743783px;fill:#ffffff;fill-opacity:1;stroke-width:0.26458332"
         id="path4051"
         inkscape:connector-curvature="0" />
      <path
         d="m 183.05546,156.03051 q -1.05282,0 -1.87964,-0.1819 -0.82131,-0.1819 -1.42214,-0.452 l 0.42444,-1.96783 h 0.23151 q 0.56775,0.51814 1.33394,0.80477 0.76619,0.28112 1.64813,0.28112 0.90399,0 1.32843,-0.24254 0.42444,-0.24804 0.42444,-0.70555 0,-0.17088 -0.0717,-0.29214 -0.0661,-0.12678 -0.26459,-0.24805 -0.19843,-0.12127 -0.5457,-0.23702 -0.34175,-0.12127 -0.88746,-0.27561 -0.60082,-0.16537 -1.08038,-0.35829 -0.47404,-0.19293 -0.81028,-0.45751 -0.33624,-0.2701 -0.51263,-0.62287 -0.17088,-0.35278 -0.17088,-0.84336 0,-1.23473 1.08589,-1.96784 1.09141,-0.73863 2.98208,-0.73863 0.9095,0 1.71428,0.14883 0.81028,0.14883 1.37252,0.40238 l -0.40238,1.89067 h -0.226 q -0.42995,-0.39687 -1.1355,-0.66145 -0.70005,-0.2701 -1.53238,-0.2701 -0.8158,0 -1.26229,0.23702 -0.44648,0.23702 -0.44648,0.65595 0,0.19292 0.0661,0.3197 0.0661,0.12678 0.27009,0.24805 0.17639,0.11024 0.55673,0.24253 0.38034,0.12678 0.89297,0.26459 1.37803,0.36931 1.96784,0.86541 0.5898,0.49609 0.5898,1.34496 0,0.71107 -0.31971,1.25126 -0.3197,0.54019 -0.88194,0.87643 -0.5898,0.35829 -1.33946,0.52366 -0.74965,0.16536 -1.69774,0.16536 z"
         style="font-style:italic;font-variant:normal;font-weight:bold;font-stretch:normal;font-size:11.28888893px;font-family:sans-serif;-inkscape-font-specification:'sans-serif Bold Italic';word-spacing:3.62743783px;fill:#ffffff;fill-opacity:1;stroke-width:0.26458332"
         id="path4053"
         inkscape:connector-curvature="0" />
    </g>
    <flowRoot
       xml:space="preserve"
       id="flowRoot4056"
       style="font-style:italic;font-variant:normal;font-weight:bold;font-stretch:normal;font-size:53.33333206px;line-height:1.25;font-family:Arial;-inkscape-font-specification:'Arial, Bold Italic';font-variant-ligatures:normal;font-variant-caps:normal;font-variant-numeric:normal;font-feature-settings:normal;text-align:start;letter-spacing:0px;word-spacing:8.22000027px;writing-mode:lr-tb;text-anchor:start;fill:#000000;fill-opacity:1;stroke:none"><flowRegion
         id="flowRegion4058"><rect
           id="rect4060"
           width="320.21835"
           height="126.26907"
           x="405.07117"
           y="304.29614" /></flowRegion><flowPara
         id="flowPara4062" /></flowRoot>    <text
       xml:space="preserve"
       style="font-style:normal;font-variant:normal;font-weight:normal;font-stretch:normal;font-size:10.58333302px;line-height:1.25;font-family:sans-serif;-inkscape-font-specification:'sans-serif, Normal';font-variant-ligatures:normal;font-variant-caps:normal;font-variant-numeric:normal;font-feature-settings:normal;text-align:start;letter-spacing:0px;word-spacing:0px;writing-mode:lr-tb;text-anchor:start;fill:#000000;fill-opacity:1;stroke:none;stroke-width:0.26458332"
       x="16.441965"
       y="215.35713"
       id="text3978"><tspan
         sodipodi:role="line"
         id="tspan3976"
         x="16.441965"
         y="215.35713"
         style="stroke-width:0.26458332">Arial:</tspan></text>
    <path
       style="fill:#1a88f0;fill-opacity:1;stroke-width:1.01015258"
       d="m 100.21993,492.67189 c 0.50458,-1.44352 50.00284,-253.45339 50.00284,-254.57887 0,-0.40545 12.0767,-0.73718 26.83712,-0.73718 25.08436,0 26.80305,0.11545 26.31568,1.76776 -1.75968,5.9657 -39.03493,204.61591 -38.4959,205.15539 0.36446,0.36476 31.53568,0.79196 69.26939,0.94933 37.73372,0.15737 68.60675,0.54327 68.60675,0.85754 0,1.02063 -8.16936,44.25903 -8.70642,46.08096 -0.4916,1.66768 -6.00614,1.76776 -97.39597,1.76776 -77.06186,0 -96.784597,-0.25824 -96.43349,-1.26269 z"
       id="path849"
       inkscape:connector-curvature="0"
       transform="scale(0.26458333)" />
    <path
       style="fill:#1a88f0;fill-opacity:1;stroke-width:1.01015258"
       d="m 315.04619,491.66174 c 1.11205,-4.95505 16.701,-95.61386 16.701,-97.12603 0,-1.45483 -4.04175,-1.61638 -40.4378,-1.61638 -34.10496,0 -40.5245,0.22588 -40.9913,1.44237 -0.30442,0.7933 -1.80814,7.84186 -3.34159,15.66348 -1.53346,7.82161 -3.02019,14.4532 -3.30385,14.73685 -0.28366,0.28367 -12.52671,0.39456 -27.20678,0.24643 l -26.69104,-0.26933 17.90974,-93.43911 c 9.85036,-51.39151 17.92928,-93.55275 17.95317,-93.69165 0.0239,-0.13889 12.34741,-0.25253 27.38562,-0.25253 25.56983,0 27.30763,0.11459 26.80909,1.76776 -0.9938,3.29548 -19.8061,102.44693 -19.8061,104.38937 0,1.86687 1.31361,1.92919 40.6633,1.92919 h 40.6633 l 9.48112,-49.58845 c 5.21461,-27.27365 9.90866,-51.59307 10.43121,-54.04316 l 0.9501,-4.45471 h 27.30038 c 21.41206,0 27.20124,0.27234 26.84067,1.26269 -0.25285,0.69448 -11.77934,58.42237 -25.61443,128.2842 l -25.1547,127.02151 -25.5256,0.005 -25.52559,0.005 0.51008,-2.27284 z"
       id="path851"
       inkscape:connector-curvature="0"
       transform="scale(0.26458333)" />
    <path
       style="fill:#ffffff;fill-opacity:1;stroke-width:0.43286967"
       d="m 129.57688,92.555743 c 1.23495,-5.320018 2.82779,-12.445403 2.82779,-12.649743 0,-0.140336 1.70442,-0.254429 3.78761,-0.253537 4.87448,0.0022 6.60127,0.866761 6.60127,3.305565 0,1.291609 -0.32546,1.89802 -1.74161,3.245176 l -1.74161,1.656745 1.30873,2.592583 c 0.71981,1.425924 1.30875,2.695536 1.30875,2.821362 0,0.125831 -0.74335,0.228782 -1.6519,0.228782 -1.59246,0 -1.69653,-0.09343 -2.89324,-2.59722 -1.07993,-2.259479 -1.39879,-2.59722 -2.45212,-2.59722 -0.9669,0 -1.26508,0.239769 -1.48038,1.190392 -0.89596,3.955754 -0.78406,3.779641 -2.4924,3.922857 -1.49045,0.124947 -1.59555,0.05904 -1.38089,-0.865742 z m 8.79165,-7.085705 c 1.04663,-0.733093 1.2691,-2.308926 0.44263,-3.135401 -0.28571,-0.285694 -1.23798,-0.519443 -2.11619,-0.519443 -1.48817,0 -1.61644,0.105095 -1.88672,1.545779 -0.1595,0.850183 -0.3968,1.824143 -0.52736,2.164353 -0.3354,0.874059 2.82178,0.831361 4.08764,-0.05528 z"
       id="path853"
       inkscape:connector-curvature="0" />
    <path
       style="fill:#ffffff;fill-opacity:1;stroke-width:0.43286967"
       d="m 119.42434,93.178022 c 0.002,-0.17856 0.55551,-2.710405 1.22743,-5.626328 0.67194,-2.915923 1.12386,-5.399513 1.00429,-5.519086 -0.11955,-0.119578 -1.06152,-0.217414 -2.09319,-0.217414 -1.87954,0 -2.10238,-0.204407 -1.61302,-1.479643 0.22158,-0.577446 1.17565,-0.684708 6.09029,-0.684708 5.79576,0 5.82678,0.0053 5.6892,0.973959 -0.12002,0.845206 -0.43232,0.991028 -2.36237,1.103112 l -2.22403,0.129155 -0.94878,4.199544 c -1.78246,7.889721 -1.58718,7.446063 -3.27722,7.446063 -0.8241,0 -1.49577,-0.146095 -1.4926,-0.324654 z"
       id="path855"
       inkscape:connector-curvature="0" />
    <path
       style="fill:#ffffff;fill-opacity:1;stroke-width:0.43286967"
       d="m 117.02434,112.90062 c 1.87327,-8.04641 2.39424,-10.33566 2.39424,-10.52056 0,-0.12099 -0.99478,-0.21998 -2.21065,-0.21998 -1.83801,0 -2.16638,-0.11543 -1.94792,-0.68473 0.14451,-0.37658 0.26274,-0.86356 0.26274,-1.08216 0,-0.22175 2.5835,-0.397469 5.84374,-0.397469 h 5.84374 v 1.082169 c 0,1.01093 -0.14338,1.08219 -2.17793,1.08219 -1.48503,0 -2.25319,0.19612 -2.41449,0.61644 -0.1301,0.33904 -0.75739,2.92002 -1.39399,5.73552 l -1.15743,5.11907 -1.63754,0.13525 c -1.51606,0.1252 -1.62026,0.061 -1.40451,-0.86574 z"
       id="path857"
       inkscape:connector-curvature="0" />
    <path
       style="fill:#ffffff;fill-opacity:1;stroke-width:0.43286967"
       d="m 146.02633,93.395948 c 0,-0.08744 0.68179,-3.128621 1.51504,-6.758179 0.83327,-3.629557 1.51505,-6.686431 1.51505,-6.79306 0,-0.10662 0.68176,-0.193866 1.51506,-0.193866 0.92975,0 1.51047,0.209036 1.50322,0.541086 -0.006,0.297598 -0.64325,3.365565 -1.41502,6.817701 l -1.40318,6.27661 -1.61509,0.134344 c -0.88829,0.07389 -1.61508,0.06281 -1.61508,-0.02463 z"
       id="path859"
       inkscape:connector-curvature="0" />
    <path
       style="fill:#ffffff;fill-opacity:1;stroke-width:0.43286967"
       d="m 157.44377,86.684975 4.01133,-6.817696 2.02518,-0.131936 c 1.11386,-0.07256 2.02519,0.03669 2.02519,0.242799 0,0.206101 0.38959,3.175481 0.86575,6.598615 0.47615,3.42314 0.86573,6.381845 0.86573,6.574902 0,0.193061 -0.67295,0.351017 -1.49542,0.351017 -1.36635,0 -1.51998,-0.13078 -1.77967,-1.515046 l -0.28421,-1.515043 h -2.66704 c -2.60407,0 -2.68632,0.03578 -3.48295,1.515043 -0.71153,1.321231 -1.02567,1.515046 -2.45556,1.515046 h -1.63965 z m 5.86693,-0.216432 c -0.0167,-1.011836 -0.17749,-2.215096 -0.35723,-2.673916 -0.27612,-0.70485 -0.53991,-0.46173 -1.70105,1.567737 -0.75583,1.321074 -1.37425,2.524333 -1.37425,2.673912 0,0.149579 0.77915,0.27196 1.73148,0.27196 h 1.73148 z"
       id="path861"
       inkscape:connector-curvature="0" />
    <path
       style="fill:#0c3c60;fill-opacity:1;stroke-width:1.01015258"
       d=""
       id="path863"
       inkscape:connector-curvature="0"
       transform="scale(0.26458333)" />
    <path
       style="fill:#ffffff;fill-opacity:1;stroke-width:0.43286967"
       d="m 182.82026,93.127978 c 0,-0.43983 2.01268,-9.492941 2.63534,-11.85387 0.39367,-1.492678 0.55243,-1.623265 1.9734,-1.623265 1.38322,0 1.52076,0.102158 1.31148,0.973959 -0.1286,0.535676 -0.36618,1.704423 -0.52797,2.597217 l -0.29416,1.623259 h 2.80266 2.80268 l 0.55118,-2.597215 0.55117,-2.59722 h 1.59919 1.59917 l -1.52724,6.925914 -1.52726,6.925919 h -1.64612 c -0.90537,0 -1.64382,-0.0487 -1.641,-0.108217 0.002,-0.05952 0.29271,-1.179571 0.64418,-2.489001 1.04681,-3.900039 1.04907,-3.895826 -2.09548,-3.895826 h -2.74475 l -0.53258,2.488998 c -0.8744,4.086682 -0.82388,4.004047 -2.44802,4.004047 -0.81724,0 -1.48587,-0.168613 -1.48587,-0.374697 z"
       id="path865"
       inkscape:connector-curvature="0" />
    <path
       style="fill:#ffffff;fill-opacity:1;stroke-width:0.43286967"
       d="m 172.86426,92.911542 c 0,-0.325122 0.48698,-2.748418 1.08217,-5.385101 0.59519,-2.636679 1.08218,-5.000354 1.08218,-5.252608 0,-0.256027 -0.87383,-0.458639 -1.97803,-0.458639 -1.80368,0 -1.96583,-0.08585 -1.83969,-0.97396 0.13488,-0.949756 0.28748,-0.976954 6.14141,-1.09472 5.37138,-0.10806 5.97493,-0.04739 5.73552,0.57649 -0.14716,0.383491 -0.26756,0.876116 -0.26756,1.094722 0,0.218608 -0.96645,0.397468 -2.14766,0.397468 -2.11661,0 -2.15389,0.02348 -2.57837,1.623261 -0.48398,1.824094 -2.19988,9.501769 -2.19988,9.843199 0,0.121563 -0.68178,0.221022 -1.51505,0.221022 -0.99187,0 -1.51504,-0.204134 -1.51504,-0.591134 z"
       id="path867"
       inkscape:connector-curvature="0" />
    <path
       style="fill:#ffffff;fill-opacity:1;stroke-width:0.43286967"
       d="m 198.83643,93.127978 c 0,-0.43983 2.01269,-9.492941 2.63535,-11.85387 0.39051,-1.480685 0.55972,-1.623265 1.92648,-1.623265 0.82409,0 1.49498,0.146094 1.49087,0.324655 -0.005,0.178559 -0.56258,2.710846 -1.24104,5.627304 l -1.23357,5.302654 h 3.23945 c 3.14818,0 3.23209,0.02743 2.97843,0.973956 -0.14355,0.535678 -0.26368,1.12005 -0.26691,1.29861 -0.008,0.457239 -9.52906,0.407239 -9.52906,-0.05004 z"
       id="path869"
       inkscape:connector-curvature="0" />
    <path
       style="fill:#ffffff;fill-opacity:1;stroke-width:0.43286967"
       d="m 214.09782,93.057329 c -0.53416,-0.21476 -1.36129,-1.030276 -1.83806,-1.812258 -1.61934,-2.655971 -0.8251,-6.877669 1.78495,-9.487714 4.29863,-4.298634 11.62964,-2.50831 11.62964,2.840105 0,5.381553 -3.33073,8.937503 -8.3155,8.877776 -1.25939,-0.01508 -2.72685,-0.203152 -3.26103,-0.417909 z m 5.85539,-2.394586 c 1.43945,-1.008232 2.25819,-2.922694 2.25819,-5.280363 0,-2.768563 -0.74443,-3.754474 -2.79107,-3.696461 -1.83386,0.05198 -3.13513,1.04547 -3.97816,3.03724 -0.81526,1.926176 -0.75151,4.852992 0.12683,5.823562 0.87995,0.972327 3.07859,1.030512 4.38421,0.116022 z"
       id="path871"
       inkscape:connector-curvature="0" />
    <path
       style="fill:#ffffff;fill-opacity:1;stroke-width:0.43286967"
       d="m 227.64115,91.013675 c 0.32454,-1.368953 1.02126,-4.485614 1.54825,-6.925916 l 0.95816,-4.436916 h 1.89966 c 1.85897,0 1.91802,0.04422 2.75815,2.065809 0.47217,1.136193 1.3031,3.033535 1.84651,4.216311 l 0.98801,2.150502 0.97431,-4.216312 0.9743,-4.21631 h 1.41074 1.41074 l -1.52726,6.925914 -1.52724,6.925919 h -1.36832 c -1.33702,0 -1.41548,-0.113856 -3.4297,-4.978004 -1.13377,-2.737899 -2.12043,-4.977999 -2.1926,-4.977999 -0.0722,0 -0.65215,2.2401 -1.28884,4.977999 l -1.15761,4.978004 h -1.43367 -1.43369 z"
       id="path873"
       inkscape:connector-curvature="0" />
    <path
       style="fill:#ffffff;fill-opacity:1;stroke-width:0.43286967"
       d="m 141.98059,108.58514 c -0.47913,-8.911045 -0.52319,-8.589419 1.1764,-8.589419 h 1.45935 l 0.33436,4.869779 0.33437,4.86979 2.33228,-4.86979 2.33231,-4.869779 h 1.71773 1.71772 v 4.519589 c 0,2.48577 0.1675,4.62309 0.37223,4.74962 0.20471,0.12652 1.25787,-1.85859 2.34033,-4.41137 1.94646,-4.59027 1.98528,-4.64288 3.52362,-4.77576 0.85553,-0.0739 1.55549,-0.0231 1.55549,0.11289 0,0.13597 -1.44662,3.26439 -3.21469,6.95205 l -3.2147,6.70483 h -1.70454 -1.70455 l -0.39067,-4.86978 -0.39068,-4.86979 -2.32876,4.86979 -2.32877,4.86978 h -1.81792 -1.81794 z"
       id="path875"
       inkscape:connector-curvature="0" />
    <path
       style="fill:#ffffff;fill-opacity:1;stroke-width:0.43286967"
       d="m 175.66376,112.90062 c 1.23496,-5.32002 2.82781,-12.4454 2.82781,-12.64975 0,-0.14033 0.68176,-0.255149 1.51504,-0.255149 1.87634,0 1.87455,-0.18379 0.0739,7.575219 l -1.4064,6.06017 -1.62136,0.13525 c -1.49892,0.12502 -1.60381,0.0597 -1.38899,-0.86574 z"
       id="path877"
       inkscape:connector-curvature="0" />
    <path
       style="fill:#ffffff;fill-opacity:1;stroke-width:0.43286967"
       d="m 197.12666,113.3339 c 0.012,-0.3127 0.6595,-3.393 1.43906,-6.84513 l 1.41738,-6.27662 1.91566,-0.12282 1.91568,-0.122817 1.70511,4.128197 c 0.97308,2.35588 1.83819,3.91287 2.01507,3.62666 0.17048,-0.27585 0.65108,-2.12696 1.06798,-4.1136 l 0.75801,-3.612049 h 1.4474 c 0.79605,0 1.44739,0.05977 1.44739,0.132849 0,0.0731 -0.68178,3.10249 -1.51505,6.73205 -0.83327,3.62956 -1.51504,6.68644 -1.51504,6.79306 0,0.10659 -0.63308,0.19244 -1.40683,0.1907 -1.38541,-0.002 -1.43625,-0.0761 -3.33861,-4.79293 -1.06247,-2.63437 -2.05052,-4.86315 -2.19565,-4.95285 -0.14513,-0.0896 -0.74693,2.01842 -1.33733,4.68472 l -1.07346,4.84779 -1.38424,0.13565 c -0.93087,0.0912 -1.37712,-0.0506 -1.36253,-0.43286 z"
       id="path879"
       inkscape:connector-curvature="0" />
    <path
       style="fill:#ffffff;fill-opacity:1;stroke-width:0.43286967"
       d="m 226.54009,113.44863 c -0.82184,-0.23742 -1.0549,-0.56546 -0.96881,-1.36368 0.21735,-2.01508 0.38865,-2.11501 2.11618,-1.23425 1.95732,0.99789 5.44008,1.1126 6.19415,0.20399 0.99937,-1.20415 0.29596,-2.04464 -2.57995,-3.08277 -4.04757,-1.46105 -5.28173,-3.39282 -3.65312,-5.718 1.45724,-2.0805 5.03795,-3.004139 8.69941,-2.24402 2.14574,0.44545 2.36712,0.5934 2.14224,1.4317 -0.13794,0.5142 -0.25346,1.1834 -0.2567,1.48711 -0.005,0.42363 -0.30326,0.39844 -1.28303,-0.10818 -1.28388,-0.66391 -4.55459,-0.88701 -5.82983,-0.39767 -0.37659,0.14452 -0.68472,0.70525 -0.68472,1.24609 0,0.99833 0.12374,1.07286 4.06578,2.44876 0.92673,0.32347 2.07713,1.11338 2.55645,1.75535 0.79972,1.07115 0.82136,1.29856 0.26293,2.76256 -0.87456,2.29272 -2.83088,3.22327 -6.66195,3.16883 -1.67028,-0.0237 -3.52384,-0.18383 -4.11903,-0.35577 z"
       id="path881"
       inkscape:connector-curvature="0" />
  </g>
</svg>
