<?xml version="1.0" encoding="UTF-8" standalone="no"?>
<!-- Created with Inkscape (http://www.inkscape.org/) -->

<svg
   xmlns:dc="http://purl.org/dc/elements/1.1/"
   xmlns:cc="http://creativecommons.org/ns#"
   xmlns:rdf="http://www.w3.org/1999/02/22-rdf-syntax-ns#"
   xmlns:svg="http://www.w3.org/2000/svg"
   xmlns="http://www.w3.org/2000/svg"
   xmlns:sodipodi="http://sodipodi.sourceforge.net/DTD/sodipodi-0.dtd"
   xmlns:inkscape="http://www.inkscape.org/namespaces/inkscape"
   width="190.47772mm"
   height="68.22435mm"
   viewBox="0 0 190.47773 68.22435"
   version="1.1"
   id="svg8"
   sodipodi:docname="triathlon-twins-white,ligt-blue.svg"
   inkscape:version="0.92.3 (2405546, 2018-03-11)">
  <defs
     id="defs2" />
  <sodipodi:namedview
     id="base"
     pagecolor="#ffffff"
     bordercolor="#666666"
     borderopacity="1.0"
     inkscape:pageopacity="0.0"
     inkscape:pageshadow="2"
     inkscape:zoom="0.98994949"
     inkscape:cx="443.58502"
     inkscape:cy="111.46599"
     inkscape:document-units="mm"
     inkscape:current-layer="layer1"
     showgrid="false"
     inkscape:window-width="1920"
     inkscape:window-height="986"
     inkscape:window-x="-11"
     inkscape:window-y="-11"
     inkscape:window-maximized="1"
     inkscape:snap-grids="true"
     showguides="false"
     inkscape:measure-start="422.5,695.357"
     inkscape:measure-end="413.214,719.464"
     inkscape:snap-text-baseline="true"
     fit-margin-top="0"
     fit-margin-left="0"
     fit-margin-right="0"
     fit-margin-bottom="0"
     inkscape:pagecheckerboard="true">
    <inkscape:grid
       type="xygrid"
       id="grid3725"
       originx="-26.335085"
       originy="-166.21025" />
  </sodipodi:namedview>
  <metadata
     id="metadata5">
    <rdf:RDF>
      <cc:Work
         rdf:about="">
        <dc:format>image/svg+xml</dc:format>
        <dc:type
           rdf:resource="http://purl.org/dc/dcmitype/StillImage" />
        <dc:title></dc:title>
      </cc:Work>
    </rdf:RDF>
  </metadata>
  <g
     inkscape:label="Vrstva 1"
     inkscape:groupmode="layer"
     id="layer1"
     transform="translate(-26.335083,-62.565421)">
    <g
       aria-label="LH"
       transform="matrix(0.91020084,0,0,1.0986586,-21.906884,1.3229167)"
       style="font-style:italic;font-variant:normal;font-weight:bold;font-stretch:normal;font-size:85.41062164px;line-height:1.25;font-family:sans-serif;-inkscape-font-specification:'sans-serif, Bold Italic';font-variant-ligatures:normal;font-variant-caps:normal;font-variant-numeric:normal;font-feature-settings:normal;text-align:start;letter-spacing:0px;word-spacing:0px;writing-mode:lr-tb;text-anchor:start;fill:#00adef;fill-opacity:1;stroke:none;stroke-width:1.23350573"
       id="text3682">
      <path
         d="m 109.61457,117.83784 -27.656548,0.003 H 53.001453 l 14.713362,-62.03704 15.730854,-0.06082 -5.776061,25.043495 -5.77606,25.043495 21.530519,0.086 18.876583,0.0537 z"
         style="font-style:italic;font-variant:normal;font-weight:bold;font-stretch:normal;font-size:85.41062164px;font-family:sans-serif;-inkscape-font-specification:'sans-serif, Bold Italic';font-variant-ligatures:normal;font-variant-caps:normal;font-variant-numeric:normal;font-feature-settings:normal;text-align:start;writing-mode:lr-tb;text-anchor:start;fill:#00adef;fill-opacity:1;stroke-width:1.23350573"
         id="path3701"
         inkscape:connector-curvature="0"
         sodipodi:nodetypes="cccccccccc" />
      <path
         d="m 145.31467,55.751582 -14.86393,62.043298 h -15.05973 l 5.07692,-24.148794 H 96.904952 l -1.794606,7.768754 h -16.0979 L 89.557212,55.746245 H 105.65512 L 99.615732,81.84374 h 23.562988 l 6.03805,-26.092158 z"
         style="font-style:italic;font-variant:normal;font-weight:bold;font-stretch:normal;font-size:85.41062164px;font-family:sans-serif;-inkscape-font-specification:'sans-serif, Bold Italic';font-variant-ligatures:normal;font-variant-caps:normal;font-variant-numeric:normal;font-feature-settings:normal;text-align:start;writing-mode:lr-tb;text-anchor:start;fill:#00adef;fill-opacity:1;stroke-width:1.23350573"
         id="path3703"
         inkscape:connector-curvature="0"
         sodipodi:nodetypes="ccccccccccccc" />
    </g>
    <text
       xml:space="preserve"
       style="font-style:normal;font-weight:normal;font-size:10.58333302px;line-height:1.25;font-family:sans-serif;letter-spacing:0px;word-spacing:0px;fill:#000000;fill-opacity:1;stroke:none;stroke-width:0.26458332"
       x="12.095239"
       y="261.47021"
       id="text3767"><tspan
         sodipodi:role="line"
         id="tspan3765"
         x="12.095239"
         y="271.1257"
         style="stroke-width:0.26458332" /></text>
    <text
       xml:space="preserve"
       style="font-style:italic;font-variant:normal;font-weight:bold;font-stretch:normal;font-size:12.69999981px;line-height:1.25;font-family:Arial;-inkscape-font-specification:'Arial, Bold Italic';font-variant-ligatures:normal;font-variant-caps:normal;font-variant-numeric:normal;font-feature-settings:normal;text-align:start;letter-spacing:0px;word-spacing:0px;writing-mode:lr-tb;text-anchor:start;fill:#000000;fill-opacity:1;stroke:none;stroke-width:0.26678672"
       x="93.854668"
       y="215.41394"
       id="text21"
       transform="scale(0.9983,1.0017029)"><tspan
         sodipodi:role="line"
         id="tspan19"
         x="93.854668"
         y="215.41394"
         style="font-style:italic;font-variant:normal;font-weight:bold;font-stretch:normal;font-size:12.69999981px;font-family:Arial;-inkscape-font-specification:'Arial, Bold Italic';font-variant-ligatures:normal;font-variant-caps:normal;font-variant-numeric:normal;font-feature-settings:normal;text-align:start;writing-mode:lr-tb;text-anchor:start;stroke-width:0.26678672">TRIATHLON</tspan></text>
    <text
       xml:space="preserve"
       style="font-style:italic;font-variant:normal;font-weight:bold;font-stretch:normal;font-size:12.69999981px;line-height:1.25;font-family:Arial;-inkscape-font-specification:'Arial, Bold Italic';font-variant-ligatures:normal;font-variant-caps:normal;font-variant-numeric:normal;font-feature-settings:normal;text-align:start;letter-spacing:0px;word-spacing:0.34660417px;writing-mode:lr-tb;text-anchor:start;fill:#000000;fill-opacity:1;stroke:none;stroke-width:0.26458332"
       x="91.949417"
       y="227.7845"
       id="text3988"><tspan
         sodipodi:role="line"
         id="tspan3986"
         x="91.949417"
         y="227.7845"
         style="font-style:italic;font-variant:normal;font-weight:bold;font-stretch:normal;font-size:12.69999981px;font-family:Arial;-inkscape-font-specification:'Arial, Bold Italic';font-variant-ligatures:normal;font-variant-caps:normal;font-variant-numeric:normal;font-feature-settings:normal;text-align:start;word-spacing:0.34660417px;writing-mode:lr-tb;text-anchor:start;stroke-width:0.26458332">T  W  I  N  <tspan
   style="font-style:italic;font-variant:normal;font-weight:bold;font-stretch:normal;font-family:Arial;-inkscape-font-specification:'Arial Bold Italic'"
   id="tspan4010">S</tspan></tspan></text>
    <text
       xml:space="preserve"
       style="font-style:normal;font-variant:normal;font-weight:normal;font-stretch:normal;font-size:10.58333302px;line-height:1.25;font-family:sans-serif;-inkscape-font-specification:'sans-serif, Normal';font-variant-ligatures:normal;font-variant-caps:normal;font-variant-numeric:normal;font-feature-settings:normal;text-align:start;letter-spacing:0px;word-spacing:0px;writing-mode:lr-tb;text-anchor:start;fill:#000000;fill-opacity:1;stroke:none;stroke-width:0.26458332"
       x="147.13188"
       y="137.17282"
       id="text3992"><tspan
         sodipodi:role="line"
         id="tspan3990"
         x="147.13188"
         y="146.82832"
         style="stroke-width:0.26458332" /></text>
    <g
       aria-label="TRIATHLON "
       style="font-style:italic;font-variant:normal;font-weight:bold;font-stretch:normal;font-size:11.28888893px;line-height:1.25;font-family:sans-serif;-inkscape-font-specification:'sans-serif Bold Italic';font-variant-ligatures:normal;font-variant-caps:normal;font-variant-numeric:normal;font-feature-settings:normal;text-align:start;letter-spacing:0px;word-spacing:0px;writing-mode:lr-tb;text-anchor:start;fill:#ffffff;fill-opacity:1;stroke:none;stroke-width:0.26458332"
       id="text4000"
       transform="matrix(1.3989686,0,0,1.4289729,-49.047196,-113.09964)">
      <path
         d="m 123.21618,139.50625 h -2.55764 l -1.52686,6.62009 h -2.1277 l 1.52687,-6.62009 h -2.55764 l 0.3638,-1.5875 h 7.24297 z"
         style="font-style:italic;font-variant:normal;font-weight:bold;font-stretch:normal;font-size:11.28888893px;font-family:sans-serif;-inkscape-font-specification:'sans-serif Bold Italic';fill:#ffffff;fill-opacity:1;stroke-width:0.26458332"
         id="path4026"
         inkscape:connector-curvature="0" />
      <path
         d="m 131.19227,139.9858 q 0,0.98668 -0.60083,1.65916 -0.60082,0.67249 -1.6316,1.01424 l 1.89618,3.46714 h -2.36471 l -1.5434,-3.00963 h -1.19063 l -0.69453,3.00963 h -2.11666 l 1.89618,-8.20759 h 3.20256 q 1.50481,0 2.32613,0.51263 0.82131,0.50712 0.82131,1.55442 z m -2.28203,0.35278 q 0,-0.49609 -0.31971,-0.70004 -0.31419,-0.20946 -0.93155,-0.20946 h -1.04731 l -0.51263,2.21037 h 1.04179 q 0.84336,0 1.30638,-0.34175 0.46303,-0.34727 0.46303,-0.95912 z"
         style="font-style:italic;font-variant:normal;font-weight:bold;font-stretch:normal;font-size:11.28888893px;font-family:sans-serif;-inkscape-font-specification:'sans-serif Bold Italic';fill:#ffffff;fill-opacity:1;stroke-width:0.26458332"
         id="path4028"
         inkscape:connector-curvature="0" />
      <path
         d="m 134.89092,146.12634 h -2.12769 l 0.33624,-1.45521 v 0 l 1.2237,-5.29717 v 0 l 0.33625,-1.45521 h 2.12768 l -0.33624,1.45521 v 0 l -1.2237,5.29717 v 0 z"
         style="font-style:italic;font-variant:normal;font-weight:bold;font-stretch:normal;font-size:11.28888893px;font-family:sans-serif;-inkscape-font-specification:'sans-serif Bold Italic';fill:#ffffff;fill-opacity:1;stroke-width:0.26458332"
         id="path4030"
         inkscape:connector-curvature="0"
         sodipodi:nodetypes="ccccccccccccc" />
      <path
         d="m 145.63411,146.12634 h -2.13321 l -0.18741,-1.67569 h -3.02066 l -0.95911,1.67569 h -2.21038 l 4.92236,-8.20759 h 2.44739 z m -2.48047,-3.14744 -0.33073,-2.949 -1.69223,2.949 z"
         style="font-style:italic;font-variant:normal;font-weight:bold;font-stretch:normal;font-size:11.28888893px;font-family:sans-serif;-inkscape-font-specification:'sans-serif Bold Italic';fill:#ffffff;fill-opacity:1;stroke-width:0.26458332"
         id="path4032"
         inkscape:connector-curvature="0" />
      <path
         d="m 154.7016,139.50625 h -2.55764 l -1.52687,6.62009 h -2.12769 l 1.52687,-6.62009 h -2.55764 l 0.3638,-1.5875 h 7.24297 z"
         style="font-style:italic;font-variant:normal;font-weight:bold;font-stretch:normal;font-size:11.28888893px;font-family:sans-serif;-inkscape-font-specification:'sans-serif Bold Italic';fill:#ffffff;fill-opacity:1;stroke-width:0.26458332"
         id="path4034"
         inkscape:connector-curvature="0" />
      <path
         d="m 163.69743,137.91875 -1.89618,8.20759 h -2.12769 l 0.83785,-3.62699 h -3.11437 l -0.83785,3.62699 h -2.12769 l 1.89618,-8.20759 h 2.12769 l -0.70004,3.02066 h 3.11437 l 0.70004,-3.02066 z"
         style="font-style:italic;font-variant:normal;font-weight:bold;font-stretch:normal;font-size:11.28888893px;font-family:sans-serif;-inkscape-font-specification:'sans-serif Bold Italic';fill:#ffffff;fill-opacity:1;stroke-width:0.26458332"
         id="path4036"
         inkscape:connector-curvature="0" />
      <path
         d="m 169.81592,146.12634 h -5.92556 l 1.89618,-8.20759 h 2.12769 l -1.52687,6.62009 h 3.79788 z"
         style="font-style:italic;font-variant:normal;font-weight:bold;font-stretch:normal;font-size:11.28888893px;font-family:sans-serif;-inkscape-font-specification:'sans-serif Bold Italic';fill:#ffffff;fill-opacity:1;stroke-width:0.26458332"
         id="path4038"
         inkscape:connector-curvature="0" />
      <path
         d="m 180.16223,140.97248 q 0,1.00872 -0.34175,1.98437 -0.34176,0.97566 -0.99219,1.70326 -0.71107,0.79375 -1.65916,1.21819 -0.94809,0.41892 -2.18281,0.41892 -1.68121,0 -2.63481,-0.86541 -0.94809,-0.87092 -0.94809,-2.39227 0,-1.06936 0.3638,-2.03399 0.36381,-0.96462 1.0418,-1.69774 0.66146,-0.71107 1.63711,-1.1355 0.97565,-0.42444 2.12769,-0.42444 1.68672,0 2.63481,0.87092 0.9536,0.87092 0.9536,2.35369 z m -3.02617,2.80017 q 0.37483,-0.49058 0.58429,-1.1355 0.21497,-0.65043 0.21497,-1.49379 0,-0.88195 -0.42443,-1.37804 -0.41893,-0.50161 -1.20165,-0.50161 -0.51263,0 -0.98117,0.23703 -0.46302,0.23151 -0.85438,0.71106 -0.38034,0.45751 -0.61185,1.14102 -0.23151,0.67799 -0.23151,1.52686 0,0.94258 0.42995,1.42214 0.43546,0.47956 1.20165,0.47956 0.52916,0 1.01975,-0.25907 0.49058,-0.26459 0.85438,-0.74966 z"
         style="font-style:italic;font-variant:normal;font-weight:bold;font-stretch:normal;font-size:11.28888893px;font-family:sans-serif;-inkscape-font-specification:'sans-serif Bold Italic';fill:#ffffff;fill-opacity:1;stroke-width:0.26458332"
         id="path4040"
         inkscape:connector-curvature="0" />
      <path
         d="m 188.14383,146.12634 h -1.80248 l -2.40881,-5.68303 -1.31189,5.68303 h -1.9513 l 1.89618,-8.20759 h 2.37022 l 2.06155,4.75147 1.09141,-4.75147 h 1.9513 z"
         style="font-style:italic;font-variant:normal;font-weight:bold;font-stretch:normal;font-size:11.28888893px;font-family:sans-serif;-inkscape-font-specification:'sans-serif Bold Italic';fill:#ffffff;fill-opacity:1;stroke-width:0.26458332"
         id="path4042"
         inkscape:connector-curvature="0" />
    </g>
    <g
       aria-label="T W I N S"
       style="font-style:italic;font-variant:normal;font-weight:bold;font-stretch:normal;font-size:11.28888893px;line-height:1.25;font-family:sans-serif;-inkscape-font-specification:'sans-serif Bold Italic';font-variant-ligatures:normal;font-variant-caps:normal;font-variant-numeric:normal;font-feature-settings:normal;text-align:start;letter-spacing:0px;word-spacing:3.62743783px;writing-mode:lr-tb;text-anchor:start;fill:#ffffff;fill-opacity:1;stroke:none;stroke-width:0.26458332"
       id="text4004"
       transform="matrix(1.3989686,0,0,1.4289729,-49.226077,-110.21669)">
      <path
         d="m 121.87982,149.26159 h -2.55763 l -1.52687,6.62009 h -2.12769 l 1.52686,-6.62009 h -2.55763 l 0.3638,-1.5875 h 7.24297 z"
         style="font-style:italic;font-variant:normal;font-weight:bold;font-stretch:normal;font-size:11.28888893px;font-family:sans-serif;-inkscape-font-specification:'sans-serif Bold Italic';word-spacing:3.62743783px;fill:#ffffff;fill-opacity:1;stroke-width:0.26458332"
         id="path4045"
         inkscape:connector-curvature="0" />
      <path
         d="m 142.32484,147.67409 -3.9908,8.20759 h -2.27101 l -0.35277,-5.44049 -2.66237,5.44049 h -2.3592 l -0.37483,-8.20759 h 2.21037 l 0.0165,5.64995 2.75608,-5.64995 h 2.11115 l 0.24805,5.64995 2.51354,-5.64995 z"
         style="font-style:italic;font-variant:normal;font-weight:bold;font-stretch:normal;font-size:11.28888893px;font-family:sans-serif;-inkscape-font-specification:'sans-serif Bold Italic';word-spacing:3.62743783px;fill:#ffffff;fill-opacity:1;stroke-width:0.26458332"
         id="path4047"
         inkscape:connector-curvature="0" />
      <path
         d="m 152.42906,155.88168 h -2.1277 l 0.33625,-1.4552 v 0 l 1.2237,-5.29718 v 0 l 0.33625,-1.45521 h 2.12768 l -0.33624,1.45521 v 0 l -1.2237,5.29718 v 0 z"
         style="font-style:italic;font-variant:normal;font-weight:bold;font-stretch:normal;font-size:11.28888893px;font-family:sans-serif;-inkscape-font-specification:'sans-serif Bold Italic';word-spacing:3.62743783px;fill:#ffffff;fill-opacity:1;stroke-width:0.26458332"
         id="path4049"
         inkscape:connector-curvature="0"
         sodipodi:nodetypes="ccccccccccccc" />
      <path
         d="m 170.45975,155.88168 h -1.80247 l -2.40882,-5.68303 -1.31189,5.68303 h -1.9513 l 1.89618,-8.20759 h 2.37023 l 2.06154,4.75147 1.09141,-4.75147 h 1.9513 z"
         style="font-style:italic;font-variant:normal;font-weight:bold;font-stretch:normal;font-size:11.28888893px;font-family:sans-serif;-inkscape-font-specification:'sans-serif Bold Italic';word-spacing:3.62743783px;fill:#ffffff;fill-opacity:1;stroke-width:0.26458332"
         id="path4051"
         inkscape:connector-curvature="0" />
      <path
         d="m 183.05546,156.03051 q -1.05282,0 -1.87964,-0.1819 -0.82131,-0.1819 -1.42214,-0.452 l 0.42444,-1.96783 h 0.23151 q 0.56775,0.51814 1.33394,0.80477 0.76619,0.28112 1.64813,0.28112 0.90399,0 1.32843,-0.24254 0.42444,-0.24804 0.42444,-0.70555 0,-0.17088 -0.0717,-0.29214 -0.0661,-0.12678 -0.26459,-0.24805 -0.19843,-0.12127 -0.5457,-0.23702 -0.34175,-0.12127 -0.88746,-0.27561 -0.60082,-0.16537 -1.08038,-0.35829 -0.47404,-0.19293 -0.81028,-0.45751 -0.33624,-0.2701 -0.51263,-0.62287 -0.17088,-0.35278 -0.17088,-0.84336 0,-1.23473 1.08589,-1.96784 1.09141,-0.73863 2.98208,-0.73863 0.9095,0 1.71428,0.14883 0.81028,0.14883 1.37252,0.40238 l -0.40238,1.89067 h -0.226 q -0.42995,-0.39687 -1.1355,-0.66145 -0.70005,-0.2701 -1.53238,-0.2701 -0.8158,0 -1.26229,0.23702 -0.44648,0.23702 -0.44648,0.65595 0,0.19292 0.0661,0.3197 0.0661,0.12678 0.27009,0.24805 0.17639,0.11024 0.55673,0.24253 0.38034,0.12678 0.89297,0.26459 1.37803,0.36931 1.96784,0.86541 0.5898,0.49609 0.5898,1.34496 0,0.71107 -0.31971,1.25126 -0.3197,0.54019 -0.88194,0.87643 -0.5898,0.35829 -1.33946,0.52366 -0.74965,0.16536 -1.69774,0.16536 z"
         style="font-style:italic;font-variant:normal;font-weight:bold;font-stretch:normal;font-size:11.28888893px;font-family:sans-serif;-inkscape-font-specification:'sans-serif Bold Italic';word-spacing:3.62743783px;fill:#ffffff;fill-opacity:1;stroke-width:0.26458332"
         id="path4053"
         inkscape:connector-curvature="0" />
    </g>
    <flowRoot
       xml:space="preserve"
       id="flowRoot4056"
       style="font-style:italic;font-variant:normal;font-weight:bold;font-stretch:normal;font-size:53.33333206px;line-height:1.25;font-family:Arial;-inkscape-font-specification:'Arial, Bold Italic';font-variant-ligatures:normal;font-variant-caps:normal;font-variant-numeric:normal;font-feature-settings:normal;text-align:start;letter-spacing:0px;word-spacing:8.22000027px;writing-mode:lr-tb;text-anchor:start;fill:#000000;fill-opacity:1;stroke:none"><flowRegion
         id="flowRegion4058"><rect
           id="rect4060"
           width="320.21835"
           height="126.26907"
           x="405.07117"
           y="304.29614" /></flowRegion><flowPara
         id="flowPara4062" /></flowRoot>    <text
       xml:space="preserve"
       style="font-style:normal;font-variant:normal;font-weight:normal;font-stretch:normal;font-size:10.58333302px;line-height:1.25;font-family:sans-serif;-inkscape-font-specification:'sans-serif, Normal';font-variant-ligatures:normal;font-variant-caps:normal;font-variant-numeric:normal;font-feature-settings:normal;text-align:start;letter-spacing:0px;word-spacing:0px;writing-mode:lr-tb;text-anchor:start;fill:#000000;fill-opacity:1;stroke:none;stroke-width:0.26458332"
       x="7.1815472"
       y="16.163691"
       id="text3974"><tspan
         sodipodi:role="line"
         id="tspan3972"
         x="7.1815472"
         y="16.163691"
         style="stroke-width:0.26458332">Sans serif:</tspan></text>
    <text
       xml:space="preserve"
       style="font-style:normal;font-variant:normal;font-weight:normal;font-stretch:normal;font-size:10.58333302px;line-height:1.25;font-family:sans-serif;-inkscape-font-specification:'sans-serif, Normal';font-variant-ligatures:normal;font-variant-caps:normal;font-variant-numeric:normal;font-feature-settings:normal;text-align:start;letter-spacing:0px;word-spacing:0px;writing-mode:lr-tb;text-anchor:start;fill:#000000;fill-opacity:1;stroke:none;stroke-width:0.26458332"
       x="16.441965"
       y="215.35713"
       id="text3978"><tspan
         sodipodi:role="line"
         id="tspan3976"
         x="16.441965"
         y="215.35713"
         style="stroke-width:0.26458332">Arial:</tspan></text>
    <path
       style="fill:#00adef;fill-opacity:1;stroke-width:1.01015258"
       d="m 100.21993,492.67189 c 0.50458,-1.44352 50.00284,-253.45339 50.00284,-254.57887 0,-0.40545 12.0767,-0.73718 26.83712,-0.73718 25.08436,0 26.80305,0.11545 26.31568,1.76776 -1.75968,5.9657 -39.03493,204.61591 -38.4959,205.15539 0.36446,0.36476 31.53568,0.79196 69.26939,0.94933 37.73372,0.15737 68.60675,0.54327 68.60675,0.85754 0,1.02063 -8.16936,44.25903 -8.70642,46.08096 -0.4916,1.66768 -6.00614,1.76776 -97.39597,1.76776 -77.06186,0 -96.784597,-0.25824 -96.43349,-1.26269 z"
       id="path849"
       inkscape:connector-curvature="0"
       transform="scale(0.26458333)" />
    <path
       style="fill:#00adef;fill-opacity:1;stroke-width:1.01015258"
       d="m 315.04619,491.66174 c 1.11205,-4.95505 16.701,-95.61386 16.701,-97.12603 0,-1.45483 -4.04175,-1.61638 -40.4378,-1.61638 -34.10496,0 -40.5245,0.22588 -40.9913,1.44237 -0.30442,0.7933 -1.80814,7.84186 -3.34159,15.66348 -1.53346,7.82161 -3.02019,14.4532 -3.30385,14.73685 -0.28366,0.28367 -12.52671,0.39456 -27.20678,0.24643 l -26.69104,-0.26933 17.90974,-93.43911 c 9.85036,-51.39151 17.92928,-93.55275 17.95317,-93.69165 0.0239,-0.13889 12.34741,-0.25253 27.38562,-0.25253 25.56983,0 27.30763,0.11459 26.80909,1.76776 -0.9938,3.29548 -19.8061,102.44693 -19.8061,104.38937 0,1.86687 1.31361,1.92919 40.6633,1.92919 h 40.6633 l 9.48112,-49.58845 c 5.21461,-27.27365 9.90866,-51.59307 10.43121,-54.04316 l 0.9501,-4.45471 h 27.30038 c 21.41206,0 27.20124,0.27234 26.84067,1.26269 -0.25285,0.69448 -11.77934,58.42237 -25.61443,128.2842 l -25.1547,127.02151 -25.5256,0.005 -25.52559,0.005 0.51008,-2.27284 z"
       id="path851"
       inkscape:connector-curvature="0"
       transform="scale(0.26458333)" />
    <path
       style="fill:#ffffff;fill-opacity:1;stroke-width:0.35776141"
       d="m 123.31765,94.835841 c 1.02067,-4.396929 2.33714,-10.285972 2.33714,-10.454856 0,-0.115986 1.40868,-0.210282 3.13041,-0.209545 4.0287,0.0018 5.45586,0.716367 5.45586,2.732009 0,1.067498 -0.26898,1.568689 -1.43941,2.682097 l -1.43942,1.369279 1.08165,2.142738 c 0.59491,1.178508 1.08166,2.227827 1.08166,2.33182 0,0.103998 -0.61437,0.189086 -1.36527,0.189086 -1.31615,0 -1.40217,-0.07722 -2.39123,-2.14657 -0.89255,-1.867431 -1.15609,-2.14657 -2.02665,-2.14657 -0.79913,0 -1.04557,0.198166 -1.22352,0.983844 -0.74049,3.269381 -0.64801,3.123826 -2.05993,3.242192 -1.23184,0.103268 -1.31871,0.0488 -1.14129,-0.715524 z m 7.26619,-5.856248 c 0.86503,-0.605892 1.04889,-1.908298 0.36582,-2.59137 -0.23613,-0.236122 -1.02317,-0.429313 -1.749,-0.429313 -1.22995,0 -1.33597,0.08686 -1.55935,1.277568 -0.13182,0.702665 -0.32795,1.507631 -0.43585,1.78881 -0.27721,0.722399 2.33216,0.68711 3.37838,-0.04569 z"
       id="path853"
       inkscape:connector-curvature="0" />
    <path
       style="fill:#ffffff;fill-opacity:1;stroke-width:0.35776141"
       d="m 114.9267,95.350146 c 0.002,-0.147577 0.45912,-2.240116 1.01446,-4.65009 0.55534,-2.409974 0.92885,-4.46263 0.83003,-4.561456 -0.0988,-0.09883 -0.87733,-0.17969 -1.72999,-0.17969 -1.55342,0 -1.73759,-0.16894 -1.33315,-1.222906 0.18314,-0.477252 0.97166,-0.565903 5.03355,-0.565903 4.79013,0 4.81576,0.0044 4.70206,0.804965 -0.0992,0.698553 -0.35731,0.819072 -1.95247,0.911708 l -1.83814,0.106745 -0.78415,3.470871 c -1.47318,6.520757 -1.31179,6.154079 -2.70858,6.154079 -0.68111,0 -1.23624,-0.120746 -1.23362,-0.268323 z"
       id="path855"
       inkscape:connector-curvature="0" />
    <path
       style="fill:#ffffff;fill-opacity:1;stroke-width:0.35776141"
       d="m 112.94313,111.65062 c 1.54823,-6.65025 1.97881,-8.54229 1.97881,-8.6951 0,-0.1 -0.82218,-0.18182 -1.82708,-0.18182 -1.51908,0 -1.79048,-0.0954 -1.60993,-0.56591 0.11944,-0.31124 0.21716,-0.71373 0.21716,-0.8944 0,-0.18327 2.13523,-0.3285 4.82978,-0.3285 h 4.82978 v 0.8944 c 0,0.83552 -0.11851,0.89441 -1.80004,0.89441 -1.22736,0 -1.86223,0.16209 -1.99554,0.50948 -0.10753,0.28022 -0.62598,2.41337 -1.15212,4.74034 l -0.9566,4.23085 -1.35341,0.11178 c -1.253,0.10348 -1.33912,0.0504 -1.16081,-0.71553 z"
       id="path857"
       inkscape:connector-curvature="0" />
    <path
       style="fill:#ffffff;fill-opacity:1;stroke-width:0.35776141"
       d="m 136.91292,95.53026 c 0,-0.07227 0.56348,-2.585767 1.25216,-5.585551 0.68869,-2.999784 1.25217,-5.526253 1.25217,-5.61438 0,-0.08812 0.56347,-0.160228 1.25217,-0.160228 0.76843,0 1.24839,0.172765 1.2424,0.447201 -0.005,0.245961 -0.53164,2.781597 -1.16949,5.634745 l -1.15972,5.18754 -1.33485,0.111034 c -0.73416,0.06107 -1.33484,0.05191 -1.33484,-0.02036 z"
       id="path859"
       inkscape:connector-curvature="0" />
    <path
       style="fill:#ffffff;fill-opacity:1;stroke-width:0.35776141"
       d="m 146.34929,89.983724 3.31531,-5.634741 1.67379,-0.109044 c 0.92059,-0.05997 1.67379,0.03032 1.67379,0.20067 0,0.17034 0.32199,2.624496 0.71553,5.453674 0.39353,2.829182 0.71552,5.274516 0.71552,5.434075 0,0.159562 -0.55618,0.290111 -1.23595,0.290111 -1.12927,0 -1.25624,-0.108088 -1.47087,-1.252167 l -0.2349,-1.252164 h -2.20428 c -2.15222,0 -2.2202,0.02957 -2.87861,1.252164 -0.58807,1.091981 -0.8477,1.252167 -2.02949,1.252167 h -1.35515 z m 4.84894,-0.178878 c -0.0138,-0.836271 -0.14669,-1.83075 -0.29524,-2.209959 -0.22821,-0.58255 -0.44623,-0.381614 -1.4059,1.295715 -0.62469,1.091851 -1.1358,2.08633 -1.1358,2.209955 0,0.123625 0.64396,0.224772 1.43104,0.224772 h 1.43105 z"
       id="path861"
       inkscape:connector-curvature="0" />
    <path
       style="fill:#0c3c60;fill-opacity:1;stroke-width:1.01015258"
       d=""
       id="path863"
       inkscape:connector-curvature="0"
       transform="scale(0.26458333)" />
    <path
       style="fill:#ffffff;fill-opacity:1;stroke-width:0.35776141"
       d="m 167.32264,95.308786 c 0,-0.363515 1.66346,-7.845798 2.17808,-9.797077 0.32536,-1.23368 0.45657,-1.341608 1.63099,-1.341608 1.14321,0 1.25689,0.08443 1.08392,0.804965 -0.10628,0.442729 -0.30265,1.408684 -0.43636,2.146567 l -0.24312,1.341604 h 2.31637 2.31638 l 0.45554,-2.146566 0.45553,-2.14657 h 1.32171 1.3217 l -1.26225,5.724182 -1.26226,5.724186 h -1.3605 c -0.74827,0 -1.35859,-0.04025 -1.35626,-0.08944 0.002,-0.04919 0.24192,-0.974901 0.5324,-2.057129 0.86518,-3.223333 0.86705,-3.219852 -1.73188,-3.219852 h -2.26851 l -0.44016,2.057126 c -0.72269,3.377593 -0.68093,3.309296 -2.02327,3.309296 -0.67543,0 -1.22805,-0.139357 -1.22805,-0.309683 z"
       id="path865"
       inkscape:connector-curvature="0" />
    <path
       style="fill:#ffffff;fill-opacity:1;stroke-width:0.35776141"
       d="m 159.09413,95.129904 c 0,-0.268709 0.40248,-2.271534 0.8944,-4.450719 0.49192,-2.179182 0.89441,-4.132731 0.89441,-4.341215 0,-0.211603 -0.72221,-0.37906 -1.63482,-0.37906 -1.49072,0 -1.62473,-0.07095 -1.52048,-0.804965 0.11148,-0.784962 0.2376,-0.807441 5.0758,-0.904773 4.43938,-0.08931 4.9382,-0.03917 4.74034,0.476462 -0.12163,0.31695 -0.22114,0.724099 -0.22114,0.904774 0,0.180677 -0.79876,0.328502 -1.77502,0.328502 -1.74934,0 -1.78016,0.01941 -2.13098,1.341605 -0.4,1.507591 -1.81818,7.853094 -1.81818,8.135282 0,0.10047 -0.56348,0.182672 -1.25217,0.182672 -0.81976,0 -1.25216,-0.168714 -1.25216,-0.488565 z"
       id="path867"
       inkscape:connector-curvature="0" />
    <path
       style="fill:#ffffff;fill-opacity:1;stroke-width:0.35776141"
       d="m 180.55981,95.308786 c 0,-0.363515 1.66346,-7.845798 2.17808,-9.797077 0.32275,-1.223767 0.4626,-1.341608 1.59221,-1.341608 0.6811,0 1.23559,0.120745 1.23219,0.268323 -0.004,0.147577 -0.46497,2.240481 -1.02571,4.650897 l -1.01952,4.382578 h 2.67736 c 2.60193,0 2.67128,0.02267 2.46164,0.804962 -0.11865,0.442732 -0.21793,0.925708 -0.22061,1.073285 -0.007,0.377902 -7.87564,0.336578 -7.87564,-0.04136 z"
       id="path869"
       inkscape:connector-curvature="0" />
    <path
       style="fill:#ffffff;fill-opacity:1;stroke-width:0.35776141"
       d="m 193.17316,95.250395 c -0.44148,-0.177497 -1.1251,-0.85151 -1.51914,-1.497809 -1.33836,-2.195126 -0.68193,-5.684307 1.47524,-7.841477 3.55277,-3.552768 9.61176,-2.073088 9.61176,2.347311 0,4.447787 -2.75281,7.386735 -6.87266,7.337372 -1.04087,-0.01247 -2.25371,-0.167903 -2.6952,-0.345397 z m 4.8394,-1.979096 c 1.18969,-0.833291 1.86637,-2.415569 1.86637,-4.364154 0,-2.288183 -0.61526,-3.103026 -2.30678,-3.055079 -1.51567,0.04296 -2.59115,0.864068 -3.2879,2.510241 -0.67381,1.591961 -0.62112,4.010938 0.10482,4.813102 0.72727,0.803616 2.54442,0.851705 3.62349,0.09589 z"
       id="path871"
       inkscape:connector-curvature="0" />
    <path
       style="fill:#ffffff;fill-opacity:1;stroke-width:0.35776141"
       d="m 204.36655,93.56134 c 0.26823,-1.131422 0.84406,-3.707304 1.27961,-5.724183 l 0.79191,-3.667056 h 1.57004 c 1.53642,0 1.58522,0.03655 2.27958,1.707365 0.39025,0.93905 1.077,2.507179 1.52612,3.484729 l 0.81658,1.777363 0.80525,-3.484729 0.80525,-3.484728 h 1.16596 1.16596 l -1.26226,5.724182 -1.26225,5.724186 h -1.1309 c -1.10503,0 -1.16987,-0.0941 -2.83461,-4.114258 -0.93704,-2.26284 -1.75251,-4.114255 -1.81215,-4.114255 -0.0597,0 -0.53899,1.851415 -1.06521,4.114255 l -0.95675,4.114258 h -1.18492 -1.18492 z"
       id="path873"
       inkscape:connector-curvature="0" />
    <path
       style="fill:#ffffff;fill-opacity:1;stroke-width:0.35776141"
       d="m 133.56916,108.08394 c -0.396,-7.36487 -0.43241,-7.09905 0.97228,-7.09905 h 1.20614 l 0.27634,4.02481 0.27635,4.02482 1.92761,-4.02482 1.92762,-4.02481 h 1.41968 1.41968 v 3.73538 c 0,2.05446 0.13844,3.82093 0.30764,3.9255 0.16919,0.10457 1.03961,-1.5361 1.93426,-3.64594 1.60872,-3.7938 1.6408,-3.83728 2.91222,-3.9471 0.70708,-0.0611 1.28559,-0.0191 1.28559,0.0933 0,0.11238 -1.19561,2.69797 -2.6569,5.74578 l -2.6569,5.54146 h -1.40879 -1.40878 l -0.32289,-4.02481 -0.32289,-4.02482 -1.9247,4.02482 -1.92469,4.02481 h -1.5025 -1.5025 z"
       id="path875"
       inkscape:connector-curvature="0" />
    <path
       style="fill:#ffffff;fill-opacity:1;stroke-width:0.35776141"
       d="m 161.40789,111.65062 c 1.02067,-4.39692 2.33714,-10.28596 2.33714,-10.45485 0,-0.11598 0.56347,-0.21088 1.25216,-0.21088 1.55078,0 1.5493,-0.1519 0.0611,6.26082 l -1.16237,5.00866 -1.34003,0.11178 c -1.23885,0.10333 -1.32553,0.0493 -1.14799,-0.71553 z"
       id="path877"
       inkscape:connector-curvature="0" />
    <path
       style="fill:#ffffff;fill-opacity:1;stroke-width:0.35776141"
       d="m 179.1467,112.00872 c 0.01,-0.25843 0.54507,-2.80427 1.18937,-5.65741 l 1.17145,-5.18754 1.58327,-0.10151 1.58328,-0.10151 1.40925,3.4119 c 0.80424,1.94711 1.51924,3.23394 1.66544,2.99739 0.1409,-0.22799 0.5381,-1.75791 0.88267,-3.39984 l 0.62648,-2.98531 h 1.19626 c 0.65793,0 1.19625,0.0494 1.19625,0.1098 0,0.0604 -0.56348,2.56417 -1.25217,5.56395 -0.68869,2.99979 -1.25216,5.52626 -1.25216,5.61438 0,0.0881 -0.52323,0.15905 -1.16273,0.15761 -1.14502,-0.002 -1.18704,-0.0629 -2.75932,-3.9613 -0.87812,-2.17727 -1.69473,-4.01933 -1.81468,-4.09346 -0.11995,-0.0741 -0.61733,1.6682 -1.10529,3.87186 l -0.8872,4.00664 -1.14405,0.11211 c -0.76935,0.0754 -1.13818,-0.0418 -1.12612,-0.35776 z"
       id="path879"
       inkscape:connector-curvature="0" />
    <path
       style="fill:#ffffff;fill-opacity:1;stroke-width:0.35776141"
       d="m 203.45654,112.10355 c -0.67924,-0.19622 -0.87186,-0.46735 -0.80071,-1.12706 0.17963,-1.66545 0.32121,-1.74803 1.74899,-1.0201 1.6177,0.82475 4.49617,0.91955 5.1194,0.1686 0.82596,-0.99522 0.2446,-1.68988 -2.1323,-2.54787 -3.34527,-1.20755 -4.36529,-2.80413 -3.01926,-4.72586 1.20439,-1.7195 4.1638,-2.48288 7.18996,-1.85465 1.77342,0.36816 1.95639,0.49044 1.77053,1.18328 -0.114,0.42498 -0.20948,0.97806 -0.21216,1.22907 -0.004,0.35013 -0.25065,0.32931 -1.06041,-0.0894 -1.06111,-0.54872 -3.76431,-0.73311 -4.81828,-0.32867 -0.31125,0.11944 -0.56591,0.58288 -0.56591,1.02988 0,0.8251 0.10227,0.8867 3.36031,2.02387 0.76594,0.26734 1.71673,0.92019 2.11287,1.45077 0.66096,0.88529 0.67885,1.07324 0.21731,2.28322 -0.72281,1.89491 -2.33968,2.66399 -5.50602,2.619 -1.38046,-0.0196 -2.9124,-0.15193 -3.40432,-0.29404 z"
       id="path881"
       inkscape:connector-curvature="0" />
  </g>
</svg>
