<?xml version="1.0" encoding="UTF-8" standalone="no"?>
<!-- Created with Inkscape (http://www.inkscape.org/) -->

<svg
   xmlns:dc="http://purl.org/dc/elements/1.1/"
   xmlns:cc="http://creativecommons.org/ns#"
   xmlns:rdf="http://www.w3.org/1999/02/22-rdf-syntax-ns#"
   xmlns:svg="http://www.w3.org/2000/svg"
   xmlns="http://www.w3.org/2000/svg"
   xmlns:sodipodi="http://sodipodi.sourceforge.net/DTD/sodipodi-0.dtd"
   xmlns:inkscape="http://www.inkscape.org/namespaces/inkscape"
   width="194.84964mm"
   height="192.63455mm"
   viewBox="0 0 194.84964 192.63456"
   version="1.1"
   id="svg8"
   sodipodi:docname="logo.svg"
   inkscape:version="0.92.3 (2405546, 2018-03-11)">
  <defs
     id="defs2" />
  <sodipodi:namedview
     id="base"
     pagecolor="#ffffff"
     bordercolor="#666666"
     borderopacity="1.0"
     inkscape:pageopacity="0.0"
     inkscape:pageshadow="2"
     inkscape:zoom="0.7"
     inkscape:cx="-35.585977"
     inkscape:cy="430.95384"
     inkscape:document-units="mm"
     inkscape:current-layer="g3747"
     showgrid="false"
     inkscape:window-width="1920"
     inkscape:window-height="986"
     inkscape:window-x="-11"
     inkscape:window-y="-11"
     inkscape:window-maximized="1"
     inkscape:snap-grids="false"
     showguides="true"
     inkscape:pagecheckerboard="true"
     fit-margin-top="0"
     fit-margin-left="0"
     fit-margin-right="0"
     fit-margin-bottom="0">
    <inkscape:grid
       type="xygrid"
       id="grid3725"
       originx="-9.2859766"
       originy="-44.690441" />
  </sodipodi:namedview>
  <metadata
     id="metadata5">
    <rdf:RDF>
      <cc:Work
         rdf:about="">
        <dc:format>image/svg+xml</dc:format>
        <dc:type
           rdf:resource="http://purl.org/dc/dcmitype/StillImage" />
        <dc:title></dc:title>
      </cc:Work>
    </rdf:RDF>
  </metadata>
  <g
     inkscape:label="Vrstva 1"
     inkscape:groupmode="layer"
     id="layer1"
     transform="translate(-9.2859801,-59.67503)">
    <g
       id="g3747">
      <g
         transform="translate(2.2678567,22.678571)"
         id="g3733">
        <g
           aria-label="LH"
           transform="matrix(2.075529,0,0,2.5052688,-99.737055,-102.65469)"
           style="font-style:italic;font-variant:normal;font-weight:bold;font-stretch:normal;font-size:85.41062164px;line-height:1.25;font-family:sans-serif;-inkscape-font-specification:'sans-serif, Bold Italic';font-variant-ligatures:normal;font-variant-caps:normal;font-variant-numeric:normal;font-feature-settings:normal;text-align:start;letter-spacing:0px;word-spacing:0px;writing-mode:lr-tb;text-anchor:start;fill:#ffffff;fill-opacity:1;stroke:none;stroke-width:1.23350573"
           id="text3682">
          <path
             d="m 109.61457,117.83784 -27.656548,0.003 H 53.001453 l 14.713362,-62.03704 15.730854,-0.06082 -5.776061,25.043495 -5.77606,25.043495 21.530519,0.086 18.876583,0.0537 z"
             style="font-style:italic;font-variant:normal;font-weight:bold;font-stretch:normal;font-size:85.41062164px;font-family:sans-serif;-inkscape-font-specification:'sans-serif, Bold Italic';font-variant-ligatures:normal;font-variant-caps:normal;font-variant-numeric:normal;font-feature-settings:normal;text-align:start;writing-mode:lr-tb;text-anchor:start;fill:#ffffff;stroke-width:1.23350573"
             id="path3701"
             inkscape:connector-curvature="0"
             sodipodi:nodetypes="cccccccccc" />
          <path
             d="m 145.31467,55.751582 -14.86393,62.043298 h -15.05973 l 5.07692,-24.148794 H 96.904952 l -1.794606,7.768754 h -16.0979 L 89.557212,55.746245 H 105.65512 L 99.615732,81.84374 h 23.562988 l 6.03805,-26.092158 z"
             style="font-style:italic;font-variant:normal;font-weight:bold;font-stretch:normal;font-size:85.41062164px;font-family:sans-serif;-inkscape-font-specification:'sans-serif, Bold Italic';font-variant-ligatures:normal;font-variant-caps:normal;font-variant-numeric:normal;font-feature-settings:normal;text-align:start;writing-mode:lr-tb;text-anchor:start;fill:#ffffff;stroke-width:1.23350573"
             id="path3703"
             inkscape:connector-curvature="0"
             sodipodi:nodetypes="ccccccccccccc" />
        </g>
        <g
           aria-label="T  W  I  N  S"
           transform="matrix(2.2815068,0,0,2.2944799,-102.59004,-94.897587)"
           style="font-style:italic;font-variant:normal;font-weight:bold;font-stretch:normal;font-size:10.70462799px;line-height:1.25;font-family:sans-serif;-inkscape-font-specification:'sans-serif, Bold Italic';font-variant-ligatures:normal;font-variant-caps:normal;font-variant-numeric:normal;font-feature-settings:normal;text-align:start;letter-spacing:0px;word-spacing:0px;writing-mode:lr-tb;text-anchor:start;fill:#ffffff;fill-opacity:1;stroke:none;stroke-width:0.36493045"
           id="text3686">
          <path
             d="m 54.910112,135.02026 h -2.425267 l -1.447843,6.27747 H 49.01943 l 1.447843,-6.27747 h -2.425267 l 0.344973,-1.50534 h 6.868106 z"
             style="font-style:italic;font-variant:normal;font-weight:bold;font-stretch:normal;font-size:10.70462799px;font-family:sans-serif;-inkscape-font-specification:'sans-serif, Bold Italic';font-variant-ligatures:normal;font-variant-caps:normal;font-variant-numeric:normal;font-feature-settings:normal;text-align:start;writing-mode:lr-tb;text-anchor:start;fill:#ffffff;stroke-width:0.36493045"
             id="path3738"
             inkscape:connector-curvature="0" />
          <path
             d="m 74.516098,133.51492 -3.784253,7.78281 h -2.15347 l -0.33452,-5.15892 -2.524577,5.15892 h -2.2371 l -0.355428,-7.78281 h 2.095975 l 0.01568,5.35754 2.613434,-5.35754 h 2.001891 l 0.235209,5.35754 2.383452,-5.35754 z"
             style="font-style:italic;font-variant:normal;font-weight:bold;font-stretch:normal;font-size:10.70462799px;font-family:sans-serif;-inkscape-font-specification:'sans-serif, Bold Italic';font-variant-ligatures:normal;font-variant-caps:normal;font-variant-numeric:normal;font-feature-settings:normal;text-align:start;writing-mode:lr-tb;text-anchor:start;fill:#ffffff;stroke-width:0.36493045"
             id="path3740"
             inkscape:connector-curvature="0" />
          <path
             d="m 84.316477,141.29773 h -2.017571 l 0.318839,-1.37989 v 0 l 1.160365,-5.02303 v 0 l 0.318839,-1.37989 h 2.017571 l -0.318839,1.37989 v 0 l -1.160365,5.02303 v 0 z"
             style="font-style:italic;font-variant:normal;font-weight:bold;font-stretch:normal;font-size:10.70462799px;font-family:sans-serif;-inkscape-font-specification:'sans-serif, Bold Italic';font-variant-ligatures:normal;font-variant-caps:normal;font-variant-numeric:normal;font-feature-settings:normal;text-align:start;writing-mode:lr-tb;text-anchor:start;fill:#ffffff;stroke-width:0.36493045"
             id="path3742"
             inkscape:connector-curvature="0"
             sodipodi:nodetypes="ccccccccccccc" />
          <path
             d="m 101.6331,141.29773 h -1.709191 l -2.284141,-5.3889 -1.243995,5.3889 h -1.850312 l 1.798043,-7.78281 h 2.247554 l 1.954852,4.50556 1.03492,-4.50556 h 1.85031 z"
             style="font-style:italic;font-variant:normal;font-weight:bold;font-stretch:normal;font-size:10.70462799px;font-family:sans-serif;-inkscape-font-specification:'sans-serif, Bold Italic';font-variant-ligatures:normal;font-variant-caps:normal;font-variant-numeric:normal;font-feature-settings:normal;text-align:start;writing-mode:lr-tb;text-anchor:start;fill:#ffffff;stroke-width:0.36493045"
             id="path3744"
             inkscape:connector-curvature="0" />
          <path
             d="m 113.79602,141.43885 q -0.99833,0 -1.78236,-0.17248 -0.77881,-0.17249 -1.34854,-0.4286 l 0.40247,-1.866 h 0.21953 q 0.53837,0.49133 1.2649,0.76313 0.72654,0.26657 1.56284,0.26657 0.8572,0 1.25967,-0.22999 0.40247,-0.23521 0.40247,-0.66904 0,-0.16203 -0.0679,-0.27702 -0.0627,-0.12022 -0.25089,-0.23521 -0.18816,-0.11499 -0.51746,-0.22475 -0.32406,-0.115 -0.84152,-0.26135 -0.56973,-0.1568 -1.02447,-0.33974 -0.44951,-0.18294 -0.76835,-0.43383 -0.31884,-0.25612 -0.4861,-0.59064 -0.16203,-0.33452 -0.16203,-0.79971 0,-1.17082 1.02969,-1.86599 1.03492,-0.7004 2.82774,-0.7004 0.86243,0 1.62556,0.14112 0.76834,0.14113 1.30149,0.38156 l -0.38157,1.79282 h -0.2143 q -0.40769,-0.37634 -1.07673,-0.62723 -0.66381,-0.25611 -1.45307,-0.25611 -0.77358,0 -1.19696,0.22475 -0.42337,0.22476 -0.42337,0.622 0,0.18294 0.0627,0.30316 0.0627,0.12022 0.25612,0.23521 0.16726,0.10454 0.52791,0.22998 0.36066,0.12022 0.84675,0.25089 1.30672,0.3502 1.866,0.82062 0.55927,0.47042 0.55927,1.27535 0,0.67427 -0.30316,1.1865 -0.30316,0.51224 -0.8363,0.83108 -0.55927,0.33974 -1.27013,0.49655 -0.71085,0.1568 -1.60987,0.1568 z"
             style="font-style:italic;font-variant:normal;font-weight:bold;font-stretch:normal;font-size:10.70462799px;font-family:sans-serif;-inkscape-font-specification:'sans-serif, Bold Italic';font-variant-ligatures:normal;font-variant-caps:normal;font-variant-numeric:normal;font-feature-settings:normal;text-align:start;writing-mode:lr-tb;text-anchor:start;fill:#ffffff;stroke-width:0.36493045"
             id="path3746"
             inkscape:connector-curvature="0" />
        </g>
        <text
           xml:space="preserve"
           style="font-style:normal;font-weight:normal;font-size:24.13315201px;line-height:1.25;font-family:sans-serif;letter-spacing:0px;word-spacing:0px;fill:#ffffff;fill-opacity:1;stroke:none;stroke-width:0.60332876"
           x="-105.51789"
           y="503.91806"
           id="text3767"><tspan
             sodipodi:role="line"
             id="tspan3765"
             x="-105.51789"
             y="525.93549"
             style="fill:#ffffff;stroke-width:0.60332876" /></text>
      </g>
    </g>
  </g>
</svg>
