<?xml version="1.0" encoding="UTF-8" standalone="no"?>
<!-- Created with Inkscape (http://www.inkscape.org/) -->

<svg
   xmlns:dc="http://purl.org/dc/elements/1.1/"
   xmlns:cc="http://creativecommons.org/ns#"
   xmlns:rdf="http://www.w3.org/1999/02/22-rdf-syntax-ns#"
   xmlns:svg="http://www.w3.org/2000/svg"
   xmlns="http://www.w3.org/2000/svg"
   xmlns:sodipodi="http://sodipodi.sourceforge.net/DTD/sodipodi-0.dtd"
   xmlns:inkscape="http://www.inkscape.org/namespaces/inkscape"
   width="596.67242mm"
   height="155.57184mm"
   viewBox="0 0 596.67242 155.57185"
   version="1.1"
   id="svg8"
   sodipodi:docname="logo2.svg"
   inkscape:version="0.92.3 (2405546, 2018-03-11)">
  <defs
     id="defs2" />
  <sodipodi:namedview
     id="base"
     pagecolor="#ffffff"
     bordercolor="#666666"
     borderopacity="1.0"
     inkscape:pageopacity="0.0"
     inkscape:pageshadow="2"
     inkscape:zoom="0.35"
     inkscape:cx="1907.9335"
     inkscape:cy="207.77684"
     inkscape:document-units="mm"
     inkscape:current-layer="layer1"
     showgrid="false"
     inkscape:window-width="1920"
     inkscape:window-height="986"
     inkscape:window-x="-11"
     inkscape:window-y="-11"
     inkscape:window-maximized="1"
     inkscape:snap-grids="false"
     showguides="true"
     inkscape:pagecheckerboard="true"
     fit-margin-top="0"
     fit-margin-left="0"
     fit-margin-right="0"
     fit-margin-bottom="0">
    <inkscape:grid
       type="xygrid"
       id="grid3725"
       originx="-12.536844"
       originy="-81.753322" />
  </sodipodi:namedview>
  <metadata
     id="metadata5">
    <rdf:RDF>
      <cc:Work
         rdf:about="">
        <dc:format>image/svg+xml</dc:format>
        <dc:type
           rdf:resource="http://purl.org/dc/dcmitype/StillImage" />
        <dc:title></dc:title>
      </cc:Work>
    </rdf:RDF>
  </metadata>
  <g
     inkscape:label="Vrstva 1"
     inkscape:groupmode="layer"
     id="layer1"
     transform="translate(-12.536854,-59.67503)"
     style="display:inline">
    <g
       id="g3747"
       style="fill:#0c3c60;fill-opacity:1">
      <g
         transform="translate(2.2678567,22.678571)"
         id="g3733"
         style="fill:#0c3c60;fill-opacity:1">
        <g
           aria-label="LH"
           transform="matrix(2.075529,0,0,2.5052688,-99.737055,-102.65469)"
           style="font-style:italic;font-variant:normal;font-weight:bold;font-stretch:normal;font-size:85.41062164px;line-height:1.25;font-family:sans-serif;-inkscape-font-specification:'sans-serif, Bold Italic';font-variant-ligatures:normal;font-variant-caps:normal;font-variant-numeric:normal;font-feature-settings:normal;text-align:start;letter-spacing:0px;word-spacing:0px;writing-mode:lr-tb;text-anchor:start;fill:#0c3c60;fill-opacity:1;stroke:none;stroke-width:1.23350573"
           id="text3682">
          <path
             d="m 109.61457,117.83784 -27.656548,0.003 H 53.001453 l 14.713362,-62.03704 15.730854,-0.06082 -5.776061,25.043495 -5.77606,25.043495 21.530519,0.086 18.876583,0.0537 z"
             style="font-style:italic;font-variant:normal;font-weight:bold;font-stretch:normal;font-size:85.41062164px;font-family:sans-serif;-inkscape-font-specification:'sans-serif, Bold Italic';font-variant-ligatures:normal;font-variant-caps:normal;font-variant-numeric:normal;font-feature-settings:normal;text-align:start;writing-mode:lr-tb;text-anchor:start;fill:#0c3c60;fill-opacity:1;stroke-width:1.23350573"
             id="path3701"
             inkscape:connector-curvature="0"
             sodipodi:nodetypes="cccccccccc" />
          <path
             d="m 145.31467,55.751582 -14.86393,62.043298 h -15.05973 l 5.07692,-24.148794 H 96.904952 l -1.794606,7.768754 h -16.0979 L 89.557212,55.746245 H 105.65512 L 99.615732,81.84374 h 23.562988 l 6.03805,-26.092158 z"
             style="font-style:italic;font-variant:normal;font-weight:bold;font-stretch:normal;font-size:85.41062164px;font-family:sans-serif;-inkscape-font-specification:'sans-serif, Bold Italic';font-variant-ligatures:normal;font-variant-caps:normal;font-variant-numeric:normal;font-feature-settings:normal;text-align:start;writing-mode:lr-tb;text-anchor:start;fill:#0c3c60;fill-opacity:1;stroke-width:1.23350573"
             id="path3703"
             inkscape:connector-curvature="0"
             sodipodi:nodetypes="ccccccccccccc" />
        </g>
        <g
           aria-label="T  W  I  N  S"
           transform="matrix(2.2815068,0,0,2.2944799,-102.59004,-94.897587)"
           style="font-style:italic;font-variant:normal;font-weight:bold;font-stretch:normal;font-size:10.70462799px;line-height:1.25;font-family:sans-serif;-inkscape-font-specification:'sans-serif, Bold Italic';font-variant-ligatures:normal;font-variant-caps:normal;font-variant-numeric:normal;font-feature-settings:normal;text-align:start;letter-spacing:0px;word-spacing:0px;writing-mode:lr-tb;text-anchor:start;fill:#0c3c60;fill-opacity:1;stroke:none;stroke-width:0.36493045"
           id="text3686" />
        <text
           xml:space="preserve"
           style="font-style:normal;font-weight:normal;font-size:24.13315201px;line-height:1.25;font-family:sans-serif;letter-spacing:0px;word-spacing:0px;fill:#0c3c60;fill-opacity:1;stroke:none;stroke-width:0.60332876"
           x="-105.51789"
           y="503.91806"
           id="text3767"><tspan
             sodipodi:role="line"
             id="tspan3765"
             x="-105.51789"
             y="525.93549"
             style="fill:#0c3c60;fill-opacity:1;stroke-width:0.60332876" /></text>
      </g>
    </g>
    <path
       d="M 270.11051,124.65317 H 257.1659 l -7.72771,33.69585 h -10.76858 l 7.72772,-33.69585 h -12.94462 l 1.84126,-8.0803 h 36.65779 z"
       style="font-style:italic;font-variant:normal;font-weight:bold;font-stretch:normal;font-size:10.70462799px;line-height:1.25;font-family:sans-serif;-inkscape-font-specification:'sans-serif, Bold Italic';font-variant-ligatures:normal;font-variant-caps:normal;font-variant-numeric:normal;font-feature-settings:normal;text-align:start;letter-spacing:0px;word-spacing:0px;writing-mode:lr-tb;text-anchor:start;fill:#0c3c60;fill-opacity:1;stroke:none;stroke-width:1.95330763"
       id="path3738"
       inkscape:connector-curvature="0" />
    <path
       d="m 374.7554,116.57287 -20.19805,41.77615 h -11.49393 l -1.78546,-27.69177 -13.47466,27.69177 h -11.94029 l -1.89707,-41.77615 H 325.153 l 0.0838,28.75791 13.94891,-28.75791 h 10.68488 l 1.25541,28.75791 12.72141,-28.75791 z"
       style="font-style:italic;font-variant:normal;font-weight:bold;font-stretch:normal;font-size:10.70462799px;line-height:1.25;font-family:sans-serif;-inkscape-font-specification:'sans-serif, Bold Italic';font-variant-ligatures:normal;font-variant-caps:normal;font-variant-numeric:normal;font-feature-settings:normal;text-align:start;letter-spacing:0px;word-spacing:0px;writing-mode:lr-tb;text-anchor:start;fill:#0c3c60;fill-opacity:1;stroke:none;stroke-width:1.95330763"
       id="path3740"
       inkscape:connector-curvature="0" />
    <path
       d="M 427.06388,158.34902 H 416.2953 l 1.70178,-7.40689 v 0 l 6.19333,-26.96236 v 0 l 1.70176,-7.4069 h 10.76857 l -1.70176,7.4069 v 0 l -6.19334,26.96236 v 0 z"
       style="font-style:italic;font-variant:normal;font-weight:bold;font-stretch:normal;font-size:10.70462799px;line-height:1.25;font-family:sans-serif;-inkscape-font-specification:'sans-serif, Bold Italic';font-variant-ligatures:normal;font-variant-caps:normal;font-variant-numeric:normal;font-feature-settings:normal;text-align:start;letter-spacing:0px;word-spacing:0px;writing-mode:lr-tb;text-anchor:start;fill:#0c3c60;fill-opacity:1;stroke:none;stroke-width:1.95330763"
       id="path3742"
       inkscape:connector-curvature="0"
       sodipodi:nodetypes="ccccccccccccc" />
    <path
       d="m 519.48952,158.34902 h -9.12261 l -12.19135,-28.92625 -6.63972,28.92625 H 481.66 l 9.59686,-41.77615 h 11.99609 l 10.43381,24.1847 5.52379,-24.1847 h 9.87583 z"
       style="font-style:italic;font-variant:normal;font-weight:bold;font-stretch:normal;font-size:10.70462799px;line-height:1.25;font-family:sans-serif;-inkscape-font-specification:'sans-serif, Bold Italic';font-variant-ligatures:normal;font-variant-caps:normal;font-variant-numeric:normal;font-feature-settings:normal;text-align:start;letter-spacing:0px;word-spacing:0px;writing-mode:lr-tb;text-anchor:start;fill:#0c3c60;fill-opacity:1;stroke:none;stroke-width:1.95330763"
       id="path3744"
       inkscape:connector-curvature="0" />
    <path
       d="m 584.40781,159.1065 q -5.32846,0 -9.51314,-0.92582 -4.1568,-0.92588 -7.1977,-2.30061 l 2.14815,-10.01622 h 1.17172 q 2.8735,2.63732 6.75127,4.09628 3.87784,1.43089 8.3415,1.43089 4.57521,0 6.72336,-1.23451 2.14812,-1.26257 2.14812,-3.59125 0,-0.86975 -0.3624,-1.48698 -0.33465,-0.6453 -1.3391,-1.26254 -1.00428,-0.61725 -2.7619,-1.20641 -1.72961,-0.61728 -4.49151,-1.40285 -3.04086,-0.84167 -5.46801,-1.82364 -2.39921,-0.98197 -4.10097,-2.32868 -1.7018,-1.37478 -2.59451,-3.1704 -0.86481,-1.79563 -0.86481,-4.29265 0,-6.28468 5.49585,-10.01617 5.52378,-3.75955 15.09276,-3.75955 4.60313,0 8.67627,0.75748 4.10093,0.75755 6.94654,2.04814 l -2.03658,9.62339 h -1.14381 q -2.17601,-2.0201 -5.74691,-3.36681 -3.54303,-1.37473 -7.75561,-1.37473 -4.1289,0 -6.38866,1.20639 -2.2597,1.20646 -2.2597,3.33874 0,0.98197 0.33466,1.62729 0.33465,0.64531 1.36701,1.26254 0.89275,0.56113 2.81766,1.23446 1.92499,0.64534 4.51946,1.34674 6.97448,1.87976 9.95957,4.40487 2.98505,2.52509 2.98505,6.84575 0,3.61932 -1.61808,6.36884 -1.6181,2.74956 -4.46367,4.46101 -2.98506,1.82364 -6.77919,2.66536 -3.79409,0.84165 -8.59252,0.84165 z"
       style="font-style:italic;font-variant:normal;font-weight:bold;font-stretch:normal;font-size:10.70462799px;line-height:1.25;font-family:sans-serif;-inkscape-font-specification:'sans-serif, Bold Italic';font-variant-ligatures:normal;font-variant-caps:normal;font-variant-numeric:normal;font-feature-settings:normal;text-align:start;letter-spacing:0px;word-spacing:0px;writing-mode:lr-tb;text-anchor:start;fill:#0c3c60;fill-opacity:1;stroke:none;stroke-width:1.95330763"
       id="path3746"
       inkscape:connector-curvature="0" />
  </g>
</svg>
